<svg width="712" height="622" viewBox="0 0 712 622" fill="none" xmlns="http://www.w3.org/2000/svg">
<g clip-path="url(#clip0)">
<path fill-rule="evenodd" clip-rule="evenodd" d="M45.1449 618.327H52.1579L78.6812 466.86L69.1234 465.285L45.1449 618.327Z" fill="#B3C1CF"/>
<path fill-rule="evenodd" clip-rule="evenodd" d="M99.3188 617.103H105.871L130.275 467.734H119.557L99.3188 617.103Z" fill="#B3C1CF"/>
<path fill-rule="evenodd" clip-rule="evenodd" d="M182.282 618.327H189.609L164.869 467.734L154.783 467.937L182.282 618.327Z" fill="#B3C1CF"/>
<path fill-rule="evenodd" clip-rule="evenodd" d="M342.431 97.6774C339.812 106.321 336.317 120.299 321.999 121.573C322.451 125.442 324.025 130.545 329.132 131.767C337.607 133.793 339.722 142.187 339.722 142.187L319.755 208.175H294.951C294.951 208.175 262.111 132.664 264.549 132.325C265.465 132.202 284.374 130.032 289.211 124.533C292.694 120.566 293.197 112.707 293.21 108.617C290.256 105.299 287.787 101.618 285.871 97.6738L282.543 80.3078L306.741 55.133H342.74L346.971 64.6828C346.971 64.6828 345.152 88.7055 342.431 97.6774Z" fill="#8E5E51"/>
<path fill-rule="evenodd" clip-rule="evenodd" d="M286.516 126.026C286.52 126.025 286.524 126.025 286.528 126.026C286.524 126.025 286.52 126.025 286.516 126.026ZM286.554 125.995C286.567 125.995 286.567 125.995 286.567 125.995C286.567 125.995 286.567 125.995 286.554 125.995ZM286.644 125.934C286.649 125.932 286.653 125.929 286.657 125.926C286.654 125.93 286.649 125.932 286.644 125.934ZM286.683 125.904C286.687 125.901 286.692 125.898 286.696 125.895C286.692 125.898 286.687 125.901 286.683 125.904ZM286.722 125.875C286.735 125.875 286.735 125.867 286.748 125.862C286.735 125.862 286.735 125.87 286.722 125.875ZM286.761 125.844C286.773 125.844 286.773 125.835 286.786 125.83C286.773 125.83 286.773 125.84 286.761 125.844ZM286.812 125.814C286.812 125.814 286.825 125.803 286.825 125.798C286.825 125.793 286.812 125.809 286.812 125.814ZM286.851 125.784C286.851 125.777 286.864 125.772 286.864 125.766C286.864 125.76 286.851 125.777 286.851 125.784ZM286.89 125.751C286.899 125.747 286.907 125.741 286.915 125.735C286.907 125.741 286.899 125.747 286.89 125.751ZM286.928 125.721C286.941 125.721 286.941 125.71 286.954 125.704C286.941 125.704 286.941 125.715 286.928 125.721ZM286.967 125.689C286.976 125.684 286.984 125.679 286.993 125.673C286.98 125.673 286.98 125.684 286.967 125.689ZM287.006 125.658C287.016 125.656 287.025 125.65 287.031 125.641C287.025 125.65 287.016 125.656 287.006 125.658ZM287.044 125.629C287.055 125.625 287.064 125.618 287.07 125.609C287.064 125.618 287.055 125.625 287.044 125.629ZM287.096 125.596C287.096 125.596 287.109 125.584 287.109 125.576C287.109 125.569 287.096 125.59 287.096 125.596ZM287.135 125.565C287.14 125.555 287.149 125.548 287.16 125.545C287.149 125.548 287.14 125.555 287.135 125.565ZM287.173 125.533C287.179 125.524 287.188 125.516 287.199 125.511C287.188 125.516 287.179 125.524 287.173 125.533ZM287.212 125.502C287.218 125.492 287.227 125.484 287.238 125.48C287.227 125.484 287.218 125.492 287.212 125.502ZM287.251 125.471C287.256 125.46 287.265 125.452 287.276 125.448C287.265 125.452 287.256 125.46 287.251 125.471ZM287.289 125.439C287.294 125.428 287.304 125.419 287.315 125.415C287.304 125.419 287.294 125.428 287.289 125.439ZM287.328 125.407C287.333 125.396 287.342 125.387 287.354 125.382C287.342 125.387 287.333 125.396 287.328 125.407ZM287.367 125.376C287.372 125.364 287.381 125.355 287.393 125.35C287.381 125.355 287.372 125.364 287.367 125.376ZM287.393 125.344L287.431 125.316L287.393 125.344ZM287.431 125.311L287.47 125.284L287.431 125.311ZM287.47 125.279L287.509 125.251L287.47 125.279ZM287.509 125.247L287.547 125.219L287.509 125.247ZM287.547 125.214L287.586 125.185L287.547 125.214ZM287.586 125.181L287.625 125.153L287.586 125.181ZM287.625 125.149C287.638 125.139 287.638 125.128 287.651 125.12C287.638 125.131 287.638 125.139 287.625 125.149ZM287.664 125.116C287.669 125.103 287.678 125.093 287.689 125.085C287.678 125.093 287.669 125.103 287.664 125.116ZM287.689 125.084L287.728 125.052L287.689 125.084ZM287.728 125.05L287.767 125.019L287.728 125.05ZM287.767 125.018L287.805 124.986L287.767 125.018ZM287.805 124.985C287.818 124.974 287.818 124.964 287.831 124.953C287.818 124.964 287.818 124.974 287.805 124.985ZM287.831 124.951L287.87 124.919L287.831 124.951ZM287.87 124.919C288.038 124.762 288.192 124.604 288.334 124.444C288.192 124.607 288.038 124.765 287.87 124.919ZM288.334 124.441C288.347 124.434 288.356 124.422 288.36 124.408C288.356 124.422 288.347 124.434 288.334 124.441ZM288.36 124.408C288.385 124.389 288.407 124.365 288.424 124.339C288.406 124.364 288.385 124.388 288.36 124.408ZM288.424 124.337L288.541 124.198L288.424 124.337ZM288.541 124.198L288.579 124.165L288.541 124.198ZM288.579 124.163C288.581 124.156 288.584 124.149 288.588 124.143C288.593 124.137 288.599 124.132 288.605 124.128C288.599 124.132 288.593 124.137 288.588 124.143C288.584 124.149 288.581 124.156 288.579 124.163ZM288.605 124.128C288.618 124.103 288.644 124.081 288.657 124.058C288.644 124.081 288.618 124.103 288.605 124.128ZM288.657 124.056C288.669 124.049 288.678 124.038 288.683 124.025C288.678 124.038 288.669 124.049 288.657 124.056ZM288.695 124.02C288.699 124.006 288.708 123.994 288.721 123.986C288.709 123.994 288.7 124.006 288.695 124.02ZM288.721 123.986C288.734 123.959 288.751 123.934 288.773 123.912C288.751 123.934 288.734 123.959 288.721 123.986ZM288.773 123.912C288.786 123.887 288.803 123.864 288.824 123.844C288.803 123.864 288.786 123.887 288.773 123.912ZM288.824 123.841C288.837 123.828 288.837 123.817 288.85 123.806C288.837 123.817 288.837 123.828 288.824 123.841ZM288.85 123.804C288.863 123.795 288.863 123.785 288.876 123.775C288.863 123.785 288.863 123.795 288.85 123.804ZM288.876 123.768C288.889 123.758 288.889 123.747 288.902 123.736C288.889 123.747 288.889 123.758 288.876 123.768ZM288.902 123.732C288.915 123.719 288.915 123.707 288.928 123.696C288.915 123.707 288.915 123.719 288.902 123.732Z" fill="#B3C1CF"/>
<path fill-rule="evenodd" clip-rule="evenodd" d="M279.899 134.715C286.141 132.144 292.745 131.847 298.24 131.847C299.053 131.847 299.853 131.856 300.614 131.861C301.375 131.866 302.11 131.874 302.806 131.874C305.979 131.874 308.43 131.738 309.694 130.85C313.37 128.242 317.859 123.447 313.164 119.244C304.638 111.619 315.898 109.06 317.42 96.2572C318.93 83.6747 308.946 75.517 322.051 75.517C322.283 75.517 322.515 75.517 322.76 75.5243C328.565 75.6467 332.512 76.0434 335.672 76.0434C338.935 76.2172 342.163 75.3359 344.83 73.5433C345.655 70.3025 347.887 66.8621 348.235 62.9859C348.467 60.4001 347.216 59.5063 345.72 59.5063C344.957 59.5378 344.208 59.717 343.521 60.0328C342.833 60.3486 342.221 60.7944 341.721 61.3428C340.122 63.3018 341.309 66.5695 338.909 67.0054C338.688 67.0462 338.464 67.0671 338.239 67.0678C336.265 67.0678 335.13 65.3317 334.408 63.8527C333.686 62.3737 332.705 60.0426 330.616 60.0426C330.354 60.0441 330.094 60.0774 329.842 60.1418C327.21 60.7968 327.056 63.3654 326.488 66.092C326.339 66.7772 325.935 67.3886 325.35 67.8142C324.765 68.2398 324.038 68.4512 323.302 68.4097C322.73 68.4109 322.163 68.2984 321.639 68.0796C321.114 67.8607 320.644 67.5403 320.258 67.1388C318.439 65.1799 318.981 64.2421 319.02 61.333C319.072 61.0089 319.047 60.6777 318.948 60.3638C318.848 60.0498 318.675 59.7609 318.443 59.5182C318.211 59.2755 317.924 59.0851 317.604 58.9608C317.285 58.8365 316.94 58.7816 316.595 58.7999C314.557 58.7999 312.016 60.5274 312.248 62.9333C312.48 65.3391 316.247 66.354 314.879 68.9802C314.222 70.2254 313.719 70.5572 313.164 70.5572C312.798 70.5291 312.438 70.4555 312.093 70.338C311.63 70.1979 311.148 70.1232 310.662 70.1164C310.533 70.1164 310.404 70.1164 310.262 70.1348C307.85 70.3539 307.037 71.2269 308.74 73.8457C310.442 76.4646 311.332 79.6748 310.765 81.4195C310.3 82.836 309.539 84.9701 307.927 84.9701C307.473 84.9526 307.032 84.8194 306.65 84.5844C304.135 83.1654 304.483 77.6057 300.601 76.838C300.1 76.7372 299.59 76.6855 299.079 76.6837C296.022 76.6837 293.997 78.7823 294.203 82.8397C294.422 87.5314 297.17 93.0947 298.537 94.2958C299.186 94.8324 300.024 95.1174 300.884 95.0941C301.223 95.097 301.561 95.0609 301.891 94.9863C301.891 94.9863 301.181 100.829 300.149 105.803C300.743 115.635 298.782 126.584 279.899 134.709V134.715ZM290.94 123.445L290.978 123.401L290.94 123.445ZM290.978 123.395L291.017 123.354L290.978 123.395ZM291.03 123.347C291.033 123.33 291.043 123.315 291.056 123.304C291.042 123.315 291.033 123.33 291.03 123.347ZM291.069 123.298C291.082 123.286 291.082 123.272 291.095 123.26C291.082 123.272 291.082 123.286 291.069 123.298ZM291.107 123.251C291.112 123.236 291.121 123.222 291.133 123.212C291.121 123.222 291.112 123.236 291.107 123.251ZM291.146 123.201C291.159 123.192 291.168 123.179 291.172 123.164C291.168 123.179 291.159 123.192 291.146 123.201ZM291.185 123.146C291.198 123.139 291.198 123.131 291.211 123.124C291.198 123.131 291.198 123.139 291.185 123.146Z" fill="#664647"/>
<path fill-rule="evenodd" clip-rule="evenodd" d="M301.091 97.2149C300.514 97.3522 299.911 97.3612 299.329 97.2412C298.747 97.1212 298.202 96.8755 297.737 96.5231C296.37 95.3196 293.623 89.7452 293.403 85.0437C293.184 80.3423 295.919 78.2671 299.801 79.0323C303.684 79.7975 303.348 85.3719 305.863 86.7933C308.379 88.2148 309.397 85.3719 309.978 83.6223C310.558 81.8727 309.668 78.6589 307.953 76.0314C306.237 73.404 307.063 72.5335 309.475 72.3131C310.09 72.2651 310.708 72.3346 311.294 72.5176C312.403 72.8176 313.061 73.1212 314.08 71.1574C315.46 68.525 311.681 67.4942 311.461 65.0981C311.074 61.1068 318.298 58.9764 318.233 63.4967C318.194 66.4106 317.653 67.3448 319.484 69.311C321.316 71.2773 325.134 70.997 325.701 68.2643C326.269 65.5315 326.437 62.958 329.055 62.3018C331.673 61.6455 332.834 64.3831 333.634 66.0188C334.434 67.6545 335.724 69.6159 338.123 69.1788C340.522 68.7417 339.348 65.4716 340.947 63.5053C342.547 61.539 347.913 60.0073 347.461 65.1459C347.01 70.2844 343.231 74.6553 343.811 78.8095C344.391 82.9636 342.431 93.1342 342.547 96.8464C342.663 100.559 342.702 102.213 345.41 101.657C348.119 101.101 352.608 93.3484 352.943 89.8493C353.278 86.3501 350.892 78.4813 352.827 74.8744C354.762 71.2675 362.32 75.9678 361.637 67.2223C360.953 58.4769 356.709 59.8237 357.625 56.398C358.541 52.9723 364.526 55.2079 363.649 50.3669C362.965 46.5715 357.973 48.6528 356.8 45.4218C354.891 40.1976 363.92 38.688 362.204 35.1913C360.489 31.6946 350.544 34.6452 349.409 31.9125C348.274 29.1798 357.522 24.1502 354.775 20.5433C353.201 18.4681 349.667 19.0325 346.623 19.5945C344.365 20.012 342.392 20.4283 341.696 19.7769C340.032 18.2465 341.696 15.4599 340.599 12.0171C339.503 8.57426 333.066 7.2067 329.519 9.93574C325.972 12.6648 326.088 15.4012 324.94 13.872C323.792 12.3428 324.94 7.53112 321.29 7.53112C317.64 7.53112 311.797 9.61249 307.914 6.76591C304.032 3.91933 301.517 -2.74594 297.286 1.29926C293.055 5.34446 297.286 8.8424 296.318 9.99205C295.88 10.4989 295.428 10.1647 294.848 9.82922C294.64 9.66319 294.397 9.54176 294.135 9.47325C293.873 9.40474 293.598 9.39076 293.33 9.43226C293.062 9.47377 292.806 9.56978 292.58 9.71372C292.355 9.85767 292.165 10.0462 292.023 10.2663C289.856 12.5619 290.488 14.9114 287.109 14.7486C283.729 14.5858 284.374 9.06399 281.511 6.22231C278.647 3.38063 272.482 6.22231 273.166 11.0303C273.849 15.8382 280.247 15.4036 280.028 18.6836C279.737 21.4049 278.345 23.9128 276.145 25.6794C274.649 26.8817 271.334 25.6794 270.418 27.2111C269.502 28.7427 271.566 33.8788 270.418 34.9734C269.27 36.0679 268.135 36.1744 263.788 33.0046C259.441 29.8348 255.108 37.0449 258.087 39.4544C261.067 41.8639 267.568 45.3569 266.42 49.4009C265.272 53.4449 258.422 50.7146 257.507 54.1036C256.591 57.4925 263.453 62.3005 261.97 63.8309C261.376 64.4431 259.841 64.3207 258.203 64.1982C255.74 64.0146 253.031 63.8309 252.825 66.1278C252.476 69.9526 260.138 72.2495 259.454 75.8576C258.771 79.4657 252.476 79.5734 253.96 82.7445C254.669 84.2406 256.926 84.079 259.183 83.9198C261.712 83.7398 264.227 83.5611 264.601 85.6951C265.285 89.7354 258.306 88.647 259.454 91.7078C260.074 93.39 262.292 93.0546 264.085 92.7264C265.555 92.4534 266.742 92.1829 266.536 93.0191C266.084 94.8776 264.704 94.7699 261.621 95.862C258.539 96.9541 261.621 100.452 263.904 100.344C266.187 100.237 282.427 97.5001 282.775 100.125C283.123 102.75 277.164 103.186 279.46 104.936C279.849 105.262 280.353 105.437 280.871 105.426C281.39 105.415 281.885 105.22 282.259 104.878C282.994 104.424 283.639 103.967 284.374 104.718C285.858 106.247 280.943 109.418 284.374 109.199C287.805 108.979 288.489 105.919 290.94 106.778C293.391 107.638 292.023 109.308 291.069 113.181C290.114 117.055 295.261 117.197 297.286 114.555C299.311 111.913 301.091 97.21 301.091 97.21" fill="#233144"/>
<path fill-rule="evenodd" clip-rule="evenodd" d="M379.217 349.266L393.083 341.627C393.083 341.627 390.581 344.027 402.409 352.323C414.237 360.619 424.233 359.308 433.546 361.274C442.859 363.241 442.42 369.787 442.42 369.787H396.966C392.894 369.769 388.965 368.362 385.896 365.822C382.827 363.282 380.823 359.779 380.249 355.952L379.217 349.262" fill="#8E5E51"/>
<path fill-rule="evenodd" clip-rule="evenodd" d="M378.16 356.319C378.16 356.319 366.822 320.461 362.733 309.629C358.644 298.798 354.104 274.961 351.847 264.563C349.589 254.165 332.783 229.896 332.783 229.896L341.863 137.163C344.675 136.998 357.2 145.349 359.457 161.96C361.237 174.91 369.544 245.06 375.89 255.895C382.236 266.729 398.565 348.728 398.565 348.728L378.16 356.319Z" fill="#D9E2E9"/>
<path fill-rule="evenodd" clip-rule="evenodd" d="M269.58 601.224V595.592L285.677 593.84C285.677 593.84 293.468 604.065 298.55 606.987C303.632 609.91 307.244 610.492 320.723 612.831C334.201 615.169 331.209 619.551 331.209 619.551H269.58V601.224Z" fill="#B3C1CF"/>
<path fill-rule="evenodd" clip-rule="evenodd" d="M319.884 603.53V598.657L343.063 597.513V601.838C343.063 601.838 355.755 610.391 370.163 611.397C384.57 612.404 388.246 619.551 388.246 619.551H319.884V603.53Z" fill="#B3C1CF"/>
<path fill-rule="evenodd" clip-rule="evenodd" d="M223.145 323.098L346.094 322.038C346.094 322.038 359.612 348.042 364.642 366.901C369.672 385.761 377.218 426.3 374.922 441.042C372.626 455.784 347.964 594.956 348.416 599.726C348.867 604.496 320.078 605.358 320.078 599.726C320.078 594.094 316.659 557.453 316.659 557.453C316.659 557.453 323.741 550.732 321.909 509.111C320.773 484.298 322.459 459.441 326.94 434.971L300.885 385.43V456.217C300.885 456.217 294.487 594.522 294.487 598.859C294.487 603.195 268.432 604.491 268.432 598.859C268.432 593.227 261.273 550.443 258.229 528.477C255.185 506.511 258.229 474.715 257.017 455.637C255.804 436.56 241.77 402.453 232.638 375.282C227.06 358.362 223.868 340.814 223.145 323.098Z" fill="#FC0E28"/>
<path fill-rule="evenodd" clip-rule="evenodd" d="M364.397 312.243C365.261 294.943 375.348 269.742 366.732 254.25C356.49 235.824 363.868 218.905 356.439 187.361C356.763 191.505 356.819 195.664 356.606 199.815C355.097 207.838 347.023 224.243 339.232 237.656C344.237 245.637 351.021 257.278 352.388 263.665C354.62 274.017 359.07 297.742 363.068 308.526C363.455 309.555 363.894 310.813 364.397 312.243Z" fill="#BAC5D6"/>
<path fill-rule="evenodd" clip-rule="evenodd" d="M275.964 129.817L257.932 132.065C257.932 132.065 231.336 137.067 226.898 167.801C223.725 189.839 236.998 225.111 246.93 257.132L245.911 266.353C245.911 266.353 234.341 279.208 229.814 289.624C224.938 300.866 221.816 313.853 223.7 331.911C232.871 337.543 268.187 349.664 302.768 345.767C337.349 341.87 351.073 328.19 351.073 328.19L326.14 269.851L324.36 258.824C330.319 255.359 354.401 214.566 357.148 200.275C357.961 196.034 355.303 149.38 349.202 140.925C346.403 137.067 335.104 132.331 335.104 132.331C333.415 141.036 332.164 166.131 316.724 192.478C316.322 193.152 315.724 193.703 315.002 194.065C314.28 194.427 313.464 194.584 312.651 194.519C311.837 194.453 311.061 194.167 310.413 193.695C309.765 193.223 309.274 192.585 308.998 191.856C302.162 173.635 286.902 144.516 275.964 129.817Z" fill="#FFFFFE"/>
<path fill-rule="evenodd" clip-rule="evenodd" d="M291.662 351.874C291.662 351.874 299.324 365.464 295.274 366.774C291.224 368.084 281.743 373.789 286.245 384.746C290.746 395.703 297.518 395.704 301.581 392.199C305.644 388.693 301.581 378.171 303.838 373.789C306.096 369.407 316.015 373.789 316.015 365.022C316.015 356.254 309.436 345.3 309.436 345.3L291.662 351.875" fill="#8E5E51"/>
<path fill-rule="evenodd" clip-rule="evenodd" d="M246.079 257.148C292.552 270.361 323.276 258.833 323.276 258.833L325.044 269.82C276.455 281.612 245.072 266.334 245.072 266.334L246.079 257.152" fill="#233144"/>
<path fill-rule="evenodd" clip-rule="evenodd" d="M291.727 351.382C291.727 351.382 287.018 343.863 280.827 325.519C274.636 307.175 268.238 273.729 265.71 266.391C263.182 259.052 238.701 210.652 234.122 192.955C229.543 175.259 225.531 145.785 253.921 138.664C265.749 135.695 267.722 157.207 273.449 173.825C279.176 190.443 293.661 248.047 295.725 258.62C297.789 269.193 300.975 268.368 305.347 290.344C309.72 312.319 316.892 346.4 315.924 348.89C314.957 351.38 292.423 354.4 291.727 351.382Z" fill="#F4F6F8"/>
<path fill-rule="evenodd" clip-rule="evenodd" d="M268.29 598.7C268.29 593.076 261.08 550.392 258.01 528.476C255.972 513.866 256.655 494.898 256.965 478.237C256.642 494.899 255.972 513.866 258.01 528.478C261.08 550.394 268.29 593.079 268.29 598.702V598.7ZM223.235 333.535C223.225 333.513 223.22 333.489 223.222 333.466C223.22 333.489 223.225 333.513 223.235 333.535ZM223.222 333.402C223.21 333.358 223.21 333.313 223.197 333.269C223.21 333.313 223.21 333.358 223.222 333.402ZM223.197 333.228C223.199 333.198 223.194 333.168 223.184 333.139C223.194 333.168 223.199 333.198 223.197 333.228ZM223.184 333.1C223.184 333.056 223.171 333.011 223.171 332.966C223.171 333.011 223.184 333.056 223.184 333.1ZM223.171 332.892C223.16 332.873 223.156 332.852 223.158 332.832C223.156 332.852 223.16 332.873 223.171 332.892ZM233.812 283.404C237.346 278.075 241.264 272.984 245.537 268.167C241.265 272.985 237.347 278.077 233.812 283.405" fill="#B3C1CF"/>
<path fill-rule="evenodd" clip-rule="evenodd" d="M278.609 622C276.626 615.676 275.193 609.208 274.326 602.662C272.656 602.478 271.041 601.976 269.58 601.186V622H278.609Z" fill="#7B91AD"/>
<path fill-rule="evenodd" clip-rule="evenodd" d="M274.378 602.411C273.433 595.575 273.187 588.668 273.643 581.787C275.255 557.675 268.264 536.645 270.844 498.719L257.042 478.289C256.72 494.987 256.049 513.998 258.074 528.638C261.105 550.605 268.238 593.384 268.238 599.02V599.056C268.275 599.459 268.42 599.847 268.659 600.182C268.899 600.517 269.224 600.788 269.606 600.97V600.983C271.083 601.751 272.704 602.235 274.378 602.409V602.411ZM277.577 406.984C282.891 403.1 290.94 400.774 300.536 400.774V393.704C299.421 394.325 298.153 394.658 296.86 394.669C293.39 394.669 289.56 392.168 286.657 385.242C286.285 384.357 285.987 383.445 285.767 382.515H235.012C236.276 386.163 237.604 389.897 238.946 393.666L253.831 398.604H253.818L274.068 405.323C275.273 405.806 276.445 406.36 277.577 406.981V406.984ZM250.4 371.505C247.866 361.818 246.324 351.921 245.795 341.953C235.463 339.064 227.556 335.748 223.816 333.463C225.059 346.34 227.576 359.077 231.335 371.505H250.4Z" fill="#C10634"/>
<path fill-rule="evenodd" clip-rule="evenodd" d="M245.382 342.852C245.176 338.658 245.15 334.324 245.33 329.832C245.408 327.838 245.537 325.892 245.679 324.001C244.066 323.299 242.351 322.469 240.506 321.493C235.94 319.078 230.046 316.156 223.803 313.152C223.358 316.765 223.138 320.4 223.145 324.039V324.266C223.158 327.119 223.3 330.105 223.583 333.247C223.583 333.247 223.583 333.254 223.596 333.258C223.594 333.304 223.599 333.35 223.609 333.395V333.455C223.607 333.481 223.612 333.507 223.622 333.531V333.666C223.627 333.671 223.631 333.677 223.633 333.684C223.635 333.69 223.636 333.698 223.635 333.705C223.633 333.735 223.637 333.766 223.648 333.795V333.836C223.648 333.881 223.661 333.926 223.661 333.97V334.036C223.661 334.058 223.674 334.083 223.674 334.106C223.674 334.149 223.687 334.193 223.687 334.236L223.803 334.311C227.479 336.609 235.231 339.943 245.382 342.853V342.852ZM251.754 294.161C254.168 286.882 257.558 279.928 261.841 273.47C256.136 272.326 250.595 270.546 245.33 268.167C241.167 273.037 237.362 278.172 233.941 283.538L251.754 294.16" fill="#B3C1CF"/>
<path fill-rule="evenodd" clip-rule="evenodd" d="M322.464 460.388C323.264 451.162 324.56 441.981 326.346 432.881C324.267 441.934 322.968 451.134 322.464 460.388ZM371.478 398.41C370.81 392.489 369.776 386.611 368.383 380.806H368.034C369.221 386.328 370.408 392.348 371.452 398.406H371.478" fill="#B3C1CF"/>
<path fill-rule="evenodd" clip-rule="evenodd" d="M319.884 595.065C323.547 592.83 326.54 588.227 328.887 582.123L317.046 564.848L319.884 595.065ZM334.511 519.478C334.052 515.032 333.342 510.612 332.383 506.238C323.65 467.652 337.826 461.107 338.458 431.42C339.09 402.258 350.531 397.166 360.347 397.166C364.089 397.345 367.811 397.801 371.478 398.53C370.433 392.43 369.26 386.368 368.073 380.807H303.645C303.864 383.886 304.083 387.033 303.116 389.205L326.488 433.246C326.488 433.246 324.218 443.956 322.631 460.945C322.025 470.296 321.948 479.769 321.987 489.031L334.511 519.478Z" fill="#C10634"/>
<path fill-rule="evenodd" clip-rule="evenodd" d="M274.984 131.042C278.997 130.267 282.88 128.98 286.528 127.216C282.88 128.979 278.996 130.265 274.984 131.039V131.042ZM286.528 127.212C286.547 127.206 286.564 127.197 286.58 127.185C286.564 127.197 286.547 127.206 286.528 127.212ZM286.58 127.185C286.599 127.179 286.616 127.17 286.632 127.158C286.616 127.17 286.599 127.179 286.58 127.185ZM286.644 127.154L286.683 127.129C286.67 127.139 286.657 127.146 286.644 127.154ZM286.696 127.126L286.735 127.102L286.696 127.126ZM286.748 127.097L286.786 127.074L286.748 127.097ZM286.799 127.068L286.838 127.046L286.799 127.068ZM286.851 127.038C286.862 127.034 286.871 127.027 286.877 127.017C286.871 127.027 286.862 127.034 286.851 127.038ZM286.89 127.01L286.928 126.988C286.915 126.995 286.902 127.004 286.89 127.01ZM286.954 126.979C286.96 126.97 286.969 126.964 286.98 126.961C286.969 126.964 286.96 126.97 286.954 126.979ZM287.006 126.95C287.012 126.941 287.021 126.935 287.031 126.933C287.021 126.935 287.012 126.941 287.006 126.95ZM287.057 126.919C287.06 126.915 287.064 126.912 287.068 126.909C287.073 126.907 287.078 126.905 287.083 126.905C287.078 126.905 287.073 126.907 287.068 126.909C287.064 126.912 287.06 126.915 287.057 126.919ZM287.096 126.89C287.106 126.888 287.115 126.883 287.122 126.877C287.115 126.883 287.106 126.888 287.096 126.89ZM287.148 126.859C287.157 126.858 287.167 126.853 287.173 126.846C287.167 126.853 287.157 126.858 287.148 126.859ZM287.199 126.831C287.212 126.831 287.212 126.823 287.225 126.818C287.212 126.818 287.212 126.826 287.199 126.831ZM287.251 126.801C287.258 126.794 287.267 126.79 287.276 126.788C287.267 126.79 287.258 126.794 287.251 126.801ZM287.302 126.772C287.302 126.772 287.315 126.764 287.315 126.759C287.315 126.754 287.302 126.768 287.302 126.772ZM287.341 126.743C287.349 126.739 287.358 126.734 287.367 126.731C287.358 126.734 287.349 126.739 287.341 126.743ZM287.393 126.712C287.406 126.712 287.405 126.705 287.418 126.701C287.405 126.701 287.406 126.709 287.393 126.712ZM287.444 126.683C287.448 126.679 287.452 126.675 287.457 126.672C287.452 126.675 287.448 126.679 287.444 126.683ZM287.496 126.653C287.496 126.653 287.496 126.645 287.509 126.643C287.496 126.643 287.496 126.65 287.496 126.653ZM287.535 126.622C287.547 126.622 287.547 126.622 287.547 126.612C287.547 126.602 287.547 126.612 287.535 126.622ZM287.586 126.591C287.591 126.589 287.595 126.587 287.599 126.584C287.594 126.586 287.59 126.588 287.586 126.591ZM287.638 126.562C287.638 126.562 287.638 126.562 287.651 126.555C287.638 126.555 287.638 126.555 287.638 126.562ZM287.676 126.531C287.681 126.529 287.685 126.527 287.689 126.524C287.685 126.527 287.681 126.529 287.676 126.531ZM287.728 126.501C287.728 126.501 287.728 126.501 287.741 126.493C287.728 126.493 287.728 126.493 287.728 126.501ZM287.767 126.47C287.78 126.47 287.78 126.47 287.78 126.47C287.78 126.47 287.78 126.47 287.767 126.47ZM287.818 126.438C287.818 126.438 287.818 126.438 287.831 126.438C287.818 126.438 287.818 126.438 287.818 126.438ZM287.857 126.409C287.87 126.409 287.87 126.409 287.87 126.409C287.87 126.409 287.87 126.409 287.857 126.409ZM287.947 126.348C287.96 126.348 287.96 126.348 287.96 126.348C287.96 126.348 287.96 126.348 287.947 126.348ZM288.038 126.286H288.05H288.038ZM289.302 125.231C289.315 125.231 289.315 125.231 289.315 125.231C289.315 125.231 289.315 125.231 289.302 125.231ZM289.792 124.692C289.792 124.692 289.792 124.685 289.805 124.68C289.792 124.68 289.792 124.69 289.792 124.692ZM289.83 124.645C289.83 124.645 289.843 124.632 289.843 124.626C289.843 124.62 289.83 124.638 289.83 124.645ZM289.856 124.604C289.869 124.596 289.878 124.583 289.882 124.569C289.878 124.583 289.869 124.596 289.856 124.604ZM289.895 124.559C291.704 121.863 292.805 118.794 293.107 115.61C292.799 118.793 291.699 121.86 289.895 124.559ZM290.385 113.35C290.394 113.053 290.437 112.757 290.514 112.469C290.437 112.757 290.394 113.053 290.385 113.35ZM283.6 108.521C283.678 108.521 283.768 108.521 283.871 108.513C283.768 108.513 283.678 108.521 283.6 108.521ZM286.812 107.419C287.805 106.724 288.528 105.958 289.56 105.95C288.528 105.95 287.805 106.723 286.812 107.419ZM283.213 103.663C283.175 103.663 283.136 103.663 283.097 103.663C283.136 103.663 283.175 103.663 283.213 103.663ZM263.621 99.711H263.517H263.621ZM263.621 99.711H263.724H263.621ZM264.137 99.6767C264.162 99.6767 264.188 99.6768 264.214 99.6694C264.188 99.6694 264.162 99.6694 264.137 99.6767ZM261.273 95.334C261.278 95.3335 261.283 95.3321 261.287 95.3298C261.292 95.3275 261.296 95.3243 261.299 95.3206C261.296 95.3243 261.292 95.3275 261.287 95.3298C261.283 95.3321 261.278 95.3335 261.273 95.334ZM261.325 95.3132L261.402 95.2826L261.325 95.3132ZM261.415 95.2777L261.454 95.2606L261.415 95.2777ZM261.479 95.2557C264.433 94.1991 265.8 94.2762 266.278 92.5768C265.8 94.2725 264.433 94.1978 261.479 95.2557ZM264.394 85.1133C264.396 85.0906 264.392 85.0678 264.382 85.0472C264.392 85.0678 264.396 85.0906 264.394 85.1133ZM259.209 83.3784C259.854 83.3331 260.486 83.2903 261.093 83.289C260.486 83.289 259.854 83.3331 259.209 83.3784ZM252.812 65.5631C253.031 64.0315 254.45 63.6984 256.126 63.6984C256.758 63.6984 257.442 63.7486 258.1 63.7976C257.442 63.7486 256.759 63.6984 256.114 63.6984C254.45 63.6984 253.031 64.0315 252.812 65.5631ZM259.983 63.8968C260.623 63.971 261.268 63.8117 261.789 63.4511C261.268 63.8117 260.623 63.971 259.983 63.8968ZM257.326 54.4131C257.323 54.1946 257.354 53.9769 257.416 53.7666C258.203 50.8136 263.504 52.5423 265.555 50.2957C263.504 52.5387 258.203 50.8123 257.416 53.7654C257.354 53.9761 257.324 54.1942 257.326 54.4131ZM257.945 39.1836C257.941 39.1781 257.937 39.1727 257.932 39.1677C257.937 39.1727 257.941 39.1781 257.945 39.1836ZM257.919 39.1603C255.598 37.1512 258.087 32.0151 261.402 32.0151C261.823 32.0155 262.24 32.0958 262.627 32.2514C262.24 32.0958 261.823 32.0155 261.402 32.0151C258.087 32.0151 255.598 37.15 257.919 39.1603ZM268.677 35.4469C268.638 35.4469 268.586 35.4469 268.548 35.4469C268.586 35.4469 268.638 35.4469 268.677 35.4469ZM268.69 35.4469C268.958 35.4389 269.221 35.3781 269.463 35.2683C269.705 35.1585 269.921 35.0021 270.096 34.809C269.921 35.0021 269.705 35.1585 269.463 35.2683C269.221 35.3781 268.958 35.4389 268.69 35.4469ZM270.147 34.7576C270.436 34.3835 270.565 33.9194 270.508 33.4586C270.565 33.9194 270.436 34.3835 270.147 34.7576ZM264.523 33.4537C264.523 33.4537 264.51 33.4452 264.51 33.4403C264.51 33.4354 264.523 33.4488 264.523 33.4537ZM263.93 33.0338L263.814 32.9432L263.93 33.0338ZM263.724 32.8795C263.687 32.856 263.653 32.8298 263.621 32.8012C263.653 32.8298 263.687 32.856 263.724 32.8795ZM263.621 32.8012C263.441 32.6693 263.251 32.5502 263.053 32.4449C263.251 32.5502 263.441 32.6693 263.621 32.8012ZM269.915 28.2576C269.891 27.8614 269.962 27.465 270.121 27.0982C269.962 27.465 269.891 27.8614 269.915 28.2576ZM275.784 25.5225C277.964 23.7637 279.342 21.2717 279.628 18.5695C279.342 21.2717 277.964 23.7637 275.784 25.5225ZM286.941 14.6675C289.856 14.6675 289.405 12.4711 291.378 10.2954C289.405 12.4711 289.856 14.6651 286.941 14.6675ZM272.843 10.8562C272.763 10.1342 272.841 9.40435 273.073 8.71268C273.306 8.02101 273.687 7.38261 274.192 6.83792C274.698 6.29323 275.317 5.85407 276.011 5.54827C276.704 5.24247 277.457 5.07669 278.222 5.06138C277.457 5.07669 276.704 5.24247 276.011 5.54827C275.317 5.85407 274.698 6.29323 274.192 6.83792C273.687 7.38261 273.306 8.02101 273.073 8.71268C272.841 9.40435 272.763 10.1342 272.843 10.8562ZM291.417 10.2538L291.456 10.2073L291.417 10.2538ZM295.209 10.1926C295.288 10.1905 295.366 10.1722 295.438 10.1391C295.509 10.1059 295.572 10.0586 295.622 10.0003C295.572 10.0586 295.509 10.1059 295.438 10.1391C295.366 10.1722 295.288 10.1905 295.209 10.1926ZM291.481 10.1926C291.485 10.1779 291.494 10.1649 291.507 10.1559C291.494 10.1649 291.485 10.1779 291.481 10.1926ZM291.572 10.0946C291.58 10.0859 291.588 10.0777 291.597 10.0701C291.588 10.0777 291.58 10.0859 291.572 10.0946ZM291.61 10.0555C291.784 9.85371 292 9.68784 292.244 9.56805C292.488 9.44825 292.755 9.37705 293.029 9.35881C292.755 9.37705 292.488 9.44825 292.244 9.56805C292 9.68784 291.784 9.85371 291.61 10.0555ZM295.635 9.99179C295.639 9.99066 295.642 9.9882 295.645 9.98484C295.647 9.98148 295.648 9.97742 295.648 9.97341C295.648 9.97742 295.647 9.98148 295.645 9.98484C295.642 9.9882 295.639 9.99066 295.635 9.99179ZM295.661 9.96119C295.673 9.96119 295.673 9.95261 295.673 9.94893C295.673 9.94526 295.673 9.95752 295.661 9.96119ZM295.699 9.92446C295.79 9.794 295.835 9.6398 295.828 9.48368C295.835 9.6398 295.79 9.794 295.699 9.92446ZM294.242 9.77631L294.203 9.74937L294.242 9.77631ZM294.139 9.71754C294.132 9.71032 294.123 9.70521 294.113 9.70286C294.123 9.70521 294.132 9.71032 294.139 9.71754ZM312.39 8.22139C311.885 8.22028 311.382 8.19044 310.881 8.13201C311.382 8.19044 311.885 8.22028 312.39 8.22139ZM313.267 8.22139C313.271 8.22078 313.276 8.22078 313.28 8.22139C313.276 8.22078 313.271 8.22078 313.267 8.22139ZM313.512 8.2116C313.521 8.2128 313.529 8.2128 313.538 8.2116C313.529 8.2128 313.521 8.2128 313.512 8.2116ZM310.881 8.17853H310.868H310.881ZM315.486 8.07447C315.498 8.07447 315.498 8.07447 315.498 8.07447C315.498 8.07447 315.498 8.07447 315.486 8.07447ZM315.615 8.05732H315.653H315.615ZM315.718 8.0451H315.757H315.718ZM315.782 8.03651H315.821H315.782ZM315.847 8.02795L315.898 8.02182L315.847 8.02795ZM315.911 8.0194C315.933 8.01802 315.954 8.01513 315.976 8.0108C315.954 8.01513 315.933 8.01802 315.911 8.0194ZM315.989 8.0108C316.44 7.95203 316.879 7.88838 317.304 7.83329C316.879 7.89083 316.44 7.95571 315.989 8.0108ZM308.998 7.77451C308.324 7.54321 307.693 7.21269 307.127 6.79506C307.693 7.21269 308.324 7.54321 308.998 7.77451ZM306.857 6.59427C306.844 6.58325 306.831 6.571 306.818 6.5612C306.831 6.571 306.844 6.58325 306.857 6.59427ZM306.818 6.55631C303.993 4.29006 301.891 0.106506 299.208 0.106506C298.712 0.141736 298.23 0.271585 297.789 0.488289C297.348 0.704993 296.957 1.00408 296.641 1.36757C296.063 1.86529 295.599 2.46927 295.275 3.14279C294.951 3.81632 294.775 4.54533 294.758 5.28546C294.775 4.54533 294.951 3.81632 295.275 3.14279C295.599 2.46927 296.063 1.86529 296.641 1.36757C296.957 1.00441 297.348 0.705629 297.789 0.489148C298.23 0.272667 298.712 0.142954 299.208 0.107739C301.891 0.107739 303.993 4.29006 306.818 6.55631Z" fill="#B3C1CF"/>
<path fill-rule="evenodd" clip-rule="evenodd" d="M279.899 135.994C279.937 135.975 279.989 135.958 280.028 135.939C279.989 135.955 279.937 135.975 279.899 135.992" fill="#664647"/>
<path fill-rule="evenodd" clip-rule="evenodd" d="M276.029 129.817C282.001 128.578 288.811 126.602 291.507 123.696C291.494 123.707 291.481 123.718 291.468 123.73C291.456 123.741 291.456 123.751 291.443 123.761V123.768L291.404 123.795C291.4 123.808 291.391 123.82 291.378 123.828C291.353 123.846 291.331 123.867 291.314 123.892L291.236 123.959C291.224 123.97 291.223 123.982 291.211 123.993C291.198 124.004 291.198 123.993 291.198 123.993C291.193 124.005 291.184 124.016 291.172 124.021L291.095 124.085C291.09 124.099 291.081 124.11 291.069 124.118L291.03 124.15L290.875 124.281L290.798 124.346L290.759 124.376C290.579 124.527 290.385 124.674 290.179 124.821L290.14 124.852H290.127L290.088 124.882L290.05 124.912C290.031 124.918 290.013 124.927 289.998 124.94L289.959 124.97H289.947L289.908 124.998L289.869 125.028H289.856L289.817 125.055L289.779 125.083C289.766 125.083 289.766 125.083 289.766 125.083L289.727 125.11C289.723 125.111 289.719 125.111 289.714 125.11L289.676 125.138L289.637 125.164C289.624 125.164 289.624 125.164 289.624 125.164C289.624 125.164 289.598 125.18 289.585 125.189C289.581 125.189 289.577 125.189 289.572 125.189L289.534 125.213C289.515 125.218 289.498 125.226 289.482 125.237V125.245L289.443 125.267C289.431 125.267 289.431 125.267 289.431 125.275C289.417 125.282 289.404 125.289 289.392 125.297C289.392 125.297 289.379 125.297 289.379 125.305L289.34 125.325C289.34 125.325 289.327 125.331 289.327 125.335C289.314 125.341 289.301 125.348 289.289 125.356C289.289 125.356 289.276 125.363 289.276 125.366C289.27 125.367 289.265 125.37 289.261 125.373C289.256 125.376 289.253 125.381 289.25 125.385C289.241 125.389 289.233 125.392 289.224 125.396C289.219 125.397 289.214 125.399 289.209 125.403C289.205 125.406 289.201 125.41 289.198 125.415C289.19 125.418 289.181 125.422 289.173 125.426C289.16 125.426 289.16 125.438 289.147 125.444C289.138 125.447 289.129 125.451 289.121 125.455C289.108 125.455 289.108 125.466 289.095 125.472C289.082 125.478 289.082 125.481 289.069 125.486C289.066 125.49 289.063 125.494 289.058 125.496C289.054 125.499 289.049 125.501 289.044 125.502C289.035 125.506 289.027 125.51 289.018 125.514C289.012 125.522 289.003 125.529 288.992 125.531C288.985 125.538 288.976 125.543 288.966 125.545C288.963 125.549 288.96 125.552 288.955 125.555C288.951 125.557 288.946 125.559 288.94 125.559C288.934 125.566 288.925 125.571 288.915 125.573C288.909 125.581 288.899 125.587 288.889 125.59C288.876 125.59 288.876 125.598 288.863 125.602C288.857 125.61 288.848 125.616 288.837 125.618C288.828 125.622 288.819 125.627 288.811 125.633C288.803 125.638 288.795 125.642 288.786 125.646C288.773 125.652 288.773 125.656 288.76 125.662C288.747 125.668 288.747 125.671 288.734 125.676C288.729 125.677 288.724 125.679 288.719 125.682C288.715 125.684 288.711 125.688 288.708 125.693L288.683 125.702C288.669 125.708 288.656 125.715 288.644 125.723C288.644 125.723 288.644 125.723 288.631 125.731C288.618 125.738 288.605 125.743 288.592 125.751C288.579 125.76 288.579 125.751 288.579 125.759L288.541 125.781C288.536 125.781 288.532 125.781 288.528 125.781L288.489 125.804C288.476 125.804 288.476 125.804 288.476 125.804C288.476 125.804 288.437 125.819 288.424 125.827C288.407 125.835 288.389 125.844 288.373 125.853C288.354 125.859 288.337 125.868 288.321 125.88C288.296 125.889 288.283 125.897 288.257 125.907C284.376 127.707 280.266 129.021 276.029 129.817Z" fill="#7B91AD"/>
<path fill-rule="evenodd" clip-rule="evenodd" d="M279.705 133.49L279.86 133.427C299.053 125.53 301.052 114.885 300.446 105.331C299.827 108.159 299.105 110.698 298.344 111.645C297.904 112.165 297.352 112.59 296.724 112.889C296.097 113.188 295.408 113.356 294.706 113.38C294.385 116.509 293.245 119.512 291.391 122.118C291.391 122.118 291.391 122.125 291.378 122.127C291.374 122.141 291.365 122.154 291.352 122.162C291.352 122.169 291.34 122.176 291.34 122.184C291.336 122.185 291.332 122.187 291.33 122.19C291.328 122.193 291.326 122.197 291.327 122.201L291.288 122.236V122.247C291.275 122.261 291.262 122.274 291.249 122.285V122.294L291.211 122.332C291.198 122.345 291.185 122.36 291.172 122.372C291.167 122.375 291.163 122.378 291.159 122.381L291.12 122.42L291.082 122.462C288.463 125.298 281.846 127.226 276.029 128.434C277.203 129.966 278.441 131.658 279.705 133.479" fill="#49313E"/>
<path fill-rule="evenodd" clip-rule="evenodd" d="M292.9 116.349C293.59 116.319 294.265 116.143 294.874 115.833C295.483 115.524 296.012 115.089 296.422 114.561C297.444 112.503 298.127 110.308 298.447 108.053C298.318 106.069 298.098 104.135 297.892 102.272C296.563 90.3188 280.401 84.906 280.182 76.13C279.963 67.354 283.639 72.457 285.883 65.6852C288.128 58.9134 282.749 61.0401 284.31 55.8207C285.871 50.6014 291.972 52.5628 296.86 49.5068C301.749 46.4509 293.055 43.6031 294.629 37.7006C296.202 31.798 311.887 34.6397 311.203 28.2977C310.52 21.9556 306.908 26.6216 307.192 21.521C307.476 16.4204 311.951 18.4602 315.834 17.4391C317.549 16.9897 317.524 12.5919 316.956 7.81335L315.653 7.99087H315.64L315.576 8.00066H315.563C315.55 8.00066 315.524 8.00067 315.511 8.00802H315.486H315.447C315.438 8.00669 315.43 8.00669 315.421 8.00802H315.382L315.318 8.01534H315.279H315.241H315.215C315.202 8.01534 315.176 8.01536 315.163 8.02393H315.15H315.099H315.086L315.034 8.03126H315.021C314.944 8.04228 314.854 8.05084 314.776 8.06186H314.763C314.746 8.06311 314.729 8.06558 314.712 8.06922H314.699L314.312 8.10961C314.295 8.11081 314.277 8.11081 314.26 8.10961H314.247H314.196H314.183C314.157 8.10961 314.144 8.10961 314.118 8.10961C314.028 8.11695 313.951 8.12677 313.86 8.13289H313.796H313.731C313.727 8.13349 313.723 8.13349 313.718 8.13289H313.667C313.577 8.14146 313.486 8.14637 313.409 8.15127H313.396H313.345C313.34 8.15011 313.336 8.15011 313.332 8.15127H313.28H313.254H313.202H313.19L313.009 8.16106H312.893C312.884 8.15985 312.876 8.15985 312.867 8.16106H312.79H312.751H312.661H312.57H312.171C312.158 8.16106 312.158 8.16106 312.158 8.16106H312.067C311.567 8.16034 311.068 8.13049 310.571 8.07168H310.558C309.938 7.99984 309.328 7.86267 308.74 7.66274L308.701 7.65048C308.031 7.41974 307.404 7.08912 306.844 6.67103C306.819 6.65773 306.798 6.64079 306.779 6.62085C306.766 6.62085 306.766 6.62085 306.766 6.62085C306.727 6.58779 306.676 6.5535 306.637 6.51922C306.611 6.50453 306.599 6.48859 306.573 6.4739L306.534 6.44087C306.534 6.44087 306.534 6.44087 306.521 6.44087C303.722 4.15993 301.633 -0.0481262 298.963 -0.0481262C298.47 -0.012974 297.991 0.11761 297.554 0.335562C297.117 0.553514 296.731 0.854209 296.422 1.21906C295.843 1.72175 295.378 2.33045 295.054 3.00845C294.731 3.68645 294.555 4.4197 294.538 5.16389C294.538 7.03467 295.609 8.56019 295.609 9.44906C295.616 9.60673 295.571 9.76248 295.48 9.8947C295.467 9.8947 295.467 9.90329 295.467 9.90819C295.467 9.91308 295.454 9.91553 295.454 9.91798C295.451 9.92265 295.446 9.92675 295.441 9.93019C295.441 9.93019 295.441 9.94001 295.428 9.94368C295.415 9.94736 295.415 9.95591 295.415 9.96203C295.415 9.96815 295.403 9.96939 295.403 9.97428C295.352 10.0318 295.289 10.0785 295.218 10.1116C295.146 10.1447 295.069 10.1634 294.99 10.1665H294.964C294.623 10.0994 294.304 9.95484 294.035 9.74532C294.022 9.73552 293.997 9.72699 293.984 9.71842L293.945 9.69637C293.941 9.69238 293.937 9.68907 293.932 9.68658C293.919 9.68658 293.919 9.67556 293.906 9.67067L293.868 9.64862C293.561 9.45461 293.204 9.34292 292.836 9.32539H292.823C292.551 9.34586 292.286 9.41859 292.044 9.53918C291.802 9.65978 291.589 9.82572 291.417 10.0269C291.404 10.0269 291.404 10.0355 291.404 10.0416C291.398 10.0435 291.393 10.0468 291.388 10.051C291.384 10.0553 291.38 10.0604 291.378 10.0661C291.352 10.0857 291.339 10.1065 291.314 10.1273L291.275 10.1653C291.275 10.1653 291.262 10.1775 291.262 10.1836C291.262 10.1898 291.236 10.213 291.223 10.2302L291.185 10.2718C289.211 12.4609 289.676 14.6696 286.76 14.6721C286.657 14.6721 286.567 14.672 286.464 14.6647H286.438C283.136 14.5006 283.755 8.98013 280.956 6.13845C280.592 5.77243 280.152 5.48253 279.663 5.2873C279.175 5.09208 278.649 4.99584 278.118 5.00472H278.093C277.329 5.02746 276.578 5.19981 275.888 5.511C275.197 5.82219 274.582 6.26548 274.08 6.81305C273.579 7.36062 273.202 8.00064 272.974 8.69297C272.745 9.38529 272.67 10.115 272.753 10.8362C272.763 10.8725 272.768 10.9101 272.766 10.9476C273.436 15.6736 279.499 15.3344 279.499 18.4308V18.5997C279.218 21.31 277.851 23.8144 275.681 25.5956C274.223 26.7991 270.973 25.5956 270.083 27.1285C270.07 27.1444 270.057 27.1639 270.044 27.1823C269.89 27.5534 269.82 27.9508 269.838 28.3491C269.838 29.8697 270.431 32.1078 270.431 33.5831C270.485 34.0446 270.361 34.5092 270.083 34.8907C270.069 34.9025 270.056 34.9151 270.044 34.9287C270.031 34.9287 270.031 34.9372 270.031 34.9397C269.856 35.1329 269.641 35.2898 269.399 35.4004C269.157 35.511 268.894 35.573 268.625 35.5825H268.612C268.574 35.5825 268.522 35.5825 268.483 35.5825C267.632 35.5323 266.445 34.9703 264.485 33.5819C264.476 33.5779 264.467 33.5734 264.459 33.5684C264.394 33.5146 264.304 33.4583 264.227 33.4019C264.188 33.3689 264.136 33.3346 264.085 33.2991C264.021 33.2584 263.961 33.2134 263.904 33.1644C263.859 33.1364 263.816 33.1053 263.775 33.0713C263.75 33.0493 263.711 33.0285 263.685 33.0077C263.659 32.9869 263.62 32.9538 263.582 32.9293C263.404 32.7993 263.219 32.6792 263.027 32.5694C262.89 32.4965 262.748 32.4319 262.601 32.3759C262.214 32.2196 261.797 32.1384 261.376 32.1372C258.074 32.1372 255.61 37.3063 257.919 39.3289C257.919 39.3289 257.919 39.3289 257.932 39.3363C257.937 39.3413 257.941 39.3467 257.945 39.3522L257.984 39.3791C260.654 41.5915 266.278 44.7282 266.29 48.3657C266.292 48.6897 266.248 49.0123 266.162 49.3256C266.044 49.7695 265.824 50.1829 265.517 50.5353C263.466 52.7917 258.203 51.0568 257.416 54.0283C257.364 54.2419 257.338 54.4604 257.339 54.6796C257.326 57.6315 261.918 61.3633 261.995 63.1679V63.2194C262.001 63.417 261.927 63.6092 261.789 63.7569C261.785 63.7577 261.781 63.76 261.779 63.7631C261.777 63.7663 261.776 63.7702 261.776 63.774C261.256 64.137 260.611 64.2977 259.97 64.2233H259.932C259.377 64.2233 258.745 64.1731 258.1 64.1242C257.455 64.0752 256.771 64.0238 256.126 64.0238C254.475 64.0238 253.057 64.3592 252.837 65.8995C252.837 65.9497 252.824 66.0011 252.824 66.0537C252.814 66.1349 252.809 66.2168 252.812 66.2986C252.812 69.8173 259.364 72.053 259.364 75.3256C259.364 75.4794 259.351 75.6329 259.325 75.7847C258.719 79.0109 253.727 79.4381 253.714 81.7619C253.725 82.0767 253.804 82.3861 253.947 82.6704C253.946 82.6752 253.947 82.6802 253.949 82.6845C253.951 82.6889 253.955 82.6925 253.96 82.6949C254.437 83.7049 255.623 83.9461 257.042 83.9461C257.674 83.9461 258.371 83.8972 259.054 83.847L259.196 83.836C259.841 83.7894 260.473 83.7478 261.067 83.7453H261.092C262.718 83.7453 264.046 84.0698 264.343 85.5157C264.353 85.5362 264.358 85.5591 264.356 85.5818V85.6051C264.356 85.6112 264.369 85.6161 264.369 85.6223C264.393 85.7997 264.406 85.9783 264.407 86.1573C264.42 89.3014 259.196 88.8276 259.196 91.0044C259.2 91.2202 259.243 91.4337 259.325 91.635C259.503 92.069 259.831 92.4329 260.255 92.6669C260.679 92.901 261.175 92.9912 261.66 92.923C262.402 92.8996 263.141 92.8094 263.866 92.6536C264.459 92.5176 265.063 92.4275 265.671 92.3842C266.11 92.3842 266.342 92.5067 266.29 92.8826C266.286 92.8871 266.282 92.8927 266.28 92.8989C266.277 92.905 266.277 92.9116 266.278 92.9181C266.278 92.9232 266.277 92.9285 266.275 92.9332C266.273 92.9379 266.269 92.942 266.265 92.945C266.259 92.9954 266.246 93.0448 266.226 93.0919C265.749 94.7986 264.394 94.7252 261.453 95.7855C261.441 95.7855 261.441 95.7855 261.441 95.7855C261.423 95.7892 261.406 95.7949 261.389 95.8026C261.389 95.8026 261.389 95.8026 261.376 95.8026L261.299 95.8344C261.299 95.8344 261.286 95.8344 261.286 95.8418L261.247 95.8565C258.655 96.9926 261.325 100.156 263.492 100.264H263.595H263.698H263.711C263.814 100.264 263.943 100.247 264.098 100.232C264.124 100.232 264.149 100.232 264.175 100.225C268.753 99.5595 273.364 99.1206 277.99 98.91C280.35 98.91 282.078 99.2014 282.182 100.045C282.192 100.115 282.197 100.186 282.194 100.257C282.207 102.287 278.415 102.95 278.415 104.094C278.437 104.249 278.495 104.398 278.584 104.53C278.673 104.661 278.792 104.773 278.931 104.857C279.281 105.161 279.733 105.339 280.208 105.359C280.746 105.315 281.258 105.12 281.678 104.799C282.043 104.506 282.484 104.312 282.955 104.237C282.994 104.237 283.02 104.237 283.059 104.237C283.333 104.285 283.58 104.425 283.755 104.631C283.755 104.631 283.755 104.631 283.768 104.639C283.768 104.642 283.769 104.646 283.771 104.649C283.773 104.653 283.777 104.655 283.781 104.656V104.667C285.084 106.159 280.724 109.123 283.446 109.123C283.523 109.123 283.613 109.123 283.716 109.115H283.755C284.813 109.038 285.821 108.656 286.644 108.02C287.625 107.32 288.347 106.551 289.379 106.542H289.392C289.67 106.548 289.945 106.599 290.204 106.694C290.593 106.768 290.941 106.969 291.189 107.263C291.436 107.556 291.567 107.922 291.559 108.298C291.258 109.923 290.844 111.526 290.32 113.099C290.247 113.389 290.208 113.687 290.204 113.985C290.19 114.301 290.248 114.617 290.375 114.91C290.501 115.203 290.693 115.466 290.937 115.682C291.181 115.898 291.471 116.061 291.788 116.16C292.104 116.259 292.44 116.292 292.771 116.256H292.9" fill="#252F3E"/>
<path fill-rule="evenodd" clip-rule="evenodd" d="M262.731 260.821C255.688 245.212 237.785 208.445 233.941 193.511C229.375 175.783 225.389 146.252 253.637 139.121C254.327 138.943 255.038 138.85 255.753 138.844C258.397 138.844 260.486 140.26 262.228 142.63C265.533 140.266 269.194 138.387 273.088 137.054C275.075 136.381 276.906 135.683 278.609 134.962C277.37 133.106 276.158 131.382 275.01 129.82H274.997L257.068 132.064C257.068 132.064 230.6 137.058 226.202 167.749C225.874 170.149 225.714 172.568 225.725 174.988C225.738 197.008 237.256 228.286 246.117 256.952C251.581 258.513 257.126 259.805 262.731 260.821Z" fill="#B3C1CF"/>
<path fill-rule="evenodd" clip-rule="evenodd" d="M296.796 391.825C298.147 391.818 299.479 391.519 300.691 390.951V383.593L303.658 388.447C304.664 386.47 304.444 383.607 304.199 380.806H285.058C285.287 381.655 285.598 382.483 285.987 383.278C289.069 389.556 293.132 391.825 296.796 391.825Z" fill="#664647"/>
<path fill-rule="evenodd" clip-rule="evenodd" d="M262.24 271.84C263.291 270.301 264.451 268.832 265.71 267.441C265.31 266.263 264.356 264.05 263.014 261.082C257.305 260.05 251.657 258.737 246.091 257.148L245.072 266.503C250.56 268.902 256.321 270.693 262.24 271.84Z" fill="#252F3E"/>
<path fill-rule="evenodd" clip-rule="evenodd" d="M296.667 362.441C295.821 359.623 294.575 356.927 292.965 354.428C292.437 354.363 291.935 354.171 291.507 353.871C296.499 361.462 296.667 362.441 296.667 362.441Z" fill="#C10634"/>
<path fill-rule="evenodd" clip-rule="evenodd" d="M295.932 362.441C296.022 362.412 298.524 361.584 297.841 354.403C297.825 354.313 297.817 354.221 297.815 354.129C297.234 354.157 296.692 354.171 296.164 354.171C295.033 354.198 293.903 354.097 292.797 353.871C294.187 356.603 295.239 359.479 295.932 362.441Z" fill="#664647"/>
<path fill-rule="evenodd" clip-rule="evenodd" d="M297.402 352.646C297.995 352.646 298.601 352.633 299.246 352.605C298.55 346.014 296.873 334.378 289.482 317.078C285.742 318.094 282.272 319.037 279.331 319.828C283.729 333.296 289.082 346.101 292.075 351.382C292.139 351.497 292.204 351.612 292.268 351.724C292.659 352.047 293.137 352.259 293.648 352.337C294.884 352.57 296.142 352.673 297.402 352.645V352.646ZM272.366 291.967L278.041 290.754C270.302 268.795 274.674 262.227 268.058 252.784C229.207 197.404 240.261 157.972 262.718 142.166C260.963 139.798 258.848 138.387 256.178 138.387C255.459 138.391 254.744 138.484 254.05 138.662C225.505 145.784 229.53 175.257 234.147 192.954C238.03 207.863 256.113 244.562 263.233 260.143C264.562 263.058 265.504 265.234 265.904 266.387C265.904 266.387 269.386 275.08 272.366 291.965" fill="#AAB9CA"/>
<path fill-rule="evenodd" clip-rule="evenodd" d="M314.08 236.335C314.717 236.335 315.341 236.155 315.871 235.819C316.402 235.482 316.815 235.004 317.059 234.445C317.303 233.886 317.367 233.27 317.242 232.677C317.118 232.083 316.811 231.537 316.36 231.109C315.909 230.681 315.334 230.39 314.709 230.272C314.083 230.154 313.435 230.214 312.846 230.446C312.257 230.678 311.753 231.07 311.399 231.573C311.044 232.077 310.855 232.668 310.855 233.274C310.855 234.086 311.195 234.864 311.8 235.438C312.404 236.012 313.225 236.335 314.08 236.335Z" fill="#B3C1CF"/>
<path fill-rule="evenodd" clip-rule="evenodd" d="M314.08 246.129C314.717 246.129 315.341 245.95 315.871 245.613C316.402 245.277 316.815 244.799 317.059 244.24C317.303 243.68 317.367 243.065 317.242 242.471C317.118 241.878 316.811 241.332 316.36 240.904C315.909 240.476 315.334 240.184 314.709 240.066C314.083 239.948 313.435 240.009 312.846 240.241C312.257 240.472 311.753 240.865 311.399 241.368C311.044 241.871 310.855 242.463 310.855 243.068C310.855 243.88 311.195 244.659 311.8 245.233C312.404 245.807 313.225 246.129 314.08 246.129Z" fill="#B3C1CF"/>
<path fill-rule="evenodd" clip-rule="evenodd" d="M314.08 257.148C314.717 257.148 315.341 256.969 315.871 256.632C316.402 256.296 316.815 255.818 317.059 255.259C317.303 254.699 317.367 254.084 317.242 253.49C317.118 252.897 316.811 252.351 316.36 251.923C315.909 251.495 315.334 251.203 314.709 251.085C314.083 250.967 313.435 251.028 312.846 251.26C312.257 251.491 311.753 251.884 311.399 252.387C311.044 252.89 310.855 253.482 310.855 254.087C310.855 254.899 311.195 255.678 311.8 256.252C312.404 256.826 313.225 257.148 314.08 257.148Z" fill="#B3C1CF"/>
<path fill-rule="evenodd" clip-rule="evenodd" d="M3.92551 296.327C3.14483 296.323 2.38098 296.542 1.73314 296.956C1.08529 297.369 0.583344 297.958 0.292442 298.646C0.00154083 299.334 -0.0649045 300.088 0.101767 300.812C0.268438 301.536 0.660573 302.196 1.22716 302.706C8.15626 308.865 17.8533 318.929 22.542 330.415C30.294 349.401 60.3889 446.92 60.3889 446.92L64.4919 296.327H3.92551Z" fill="#F4F6F8"/>
<path fill-rule="evenodd" clip-rule="evenodd" d="M105.252 237.559L143.548 243.84L147.856 241.105L162.122 256.144L188.319 377.794L135.925 395.498L95.4493 243.168L105.252 237.559Z" fill="#FFFFFE"/>
<path fill-rule="evenodd" clip-rule="evenodd" d="M343.101 600.904L360.772 588.147L366.37 589.146C379.359 590.033 394.644 583.376 406.962 577.385C419.28 571.395 421.783 575.833 421.783 575.833L352.221 617.103L343.101 600.904Z" fill="#EC0020"/>
<path fill-rule="evenodd" clip-rule="evenodd" d="M358.064 619.551L421.783 580.275V575.475L352.13 616.061L358.064 619.552" fill="#D9E2E9"/>
<path fill-rule="evenodd" clip-rule="evenodd" d="M361.159 586.57L356.735 579.148L337.942 590.259L343.605 598.738L361.159 586.57Z" fill="#D9E2E9"/>
<path fill-rule="evenodd" clip-rule="evenodd" d="M206.287 591.392C206.287 591.392 228.988 591.537 232.471 596.997C235.953 602.456 262.731 608.797 274.687 610.715C286.644 612.634 284.98 615.878 284.98 615.878L202.507 613.666L206.287 591.392Z" fill="#EC0020"/>
<path fill-rule="evenodd" clip-rule="evenodd" d="M330.203 281.211L345.617 277.962L350.841 299.403L331.312 303.673L330.203 281.211Z" fill="#FFFFFE"/>
<path fill-rule="evenodd" clip-rule="evenodd" d="M204.403 618.327H281.421L285.058 614.079L202.507 612.205L204.403 618.327Z" fill="#D9E2E9"/>
<path fill-rule="evenodd" clip-rule="evenodd" d="M343.101 277.095L348.171 297.551C348.171 297.551 357.78 297.528 360.927 297.384C364.074 297.239 372.936 297.122 378.521 291.279C384.39 285.132 377.231 272.512 383.229 269.88C386.508 268.427 389.646 266.703 392.606 264.727C396.321 262.754 394.799 259.497 390.297 261.138C387.408 262.197 377.076 265.468 371.014 268.052C364.952 270.637 361.134 264.241 362.398 260.493C363.791 256.349 358.193 251.466 356.98 254.337C355.832 257.022 358.528 264.486 353.91 270.967C352.668 272.656 351.062 274.075 349.199 275.131C347.336 276.186 345.257 276.854 343.101 277.089" fill="#FEB18A"/>
<path fill-rule="evenodd" clip-rule="evenodd" d="M152.203 233.886L173.769 336.73L175.42 281.711C175.433 281.244 175.296 280.784 175.026 280.393C174.756 280.002 174.367 279.699 173.911 279.523L165.385 276.307L172.957 273.895C173.494 273.721 173.95 273.373 174.243 272.911C174.535 272.449 174.646 271.904 174.556 271.371L170.145 244.894L152.203 233.886Z" fill="#21406D"/>
<path fill-rule="evenodd" clip-rule="evenodd" d="M111.211 228.989L104.478 238.783C117.841 254.627 139.304 263.27 139.304 263.27V248.001C126.29 246.598 111.211 228.989 111.211 228.989Z" fill="#D9E2E9"/>
<path fill-rule="evenodd" clip-rule="evenodd" d="M112.282 283.18C112.755 283.722 113.382 284.125 114.087 284.341C114.793 284.558 115.549 284.58 116.268 284.404L129.166 281.247L123.916 289.132C123.472 289.798 123.259 290.579 123.305 291.367C123.351 292.154 123.655 292.908 124.174 293.523C134.016 305.15 144.464 342.852 144.464 342.852C144.464 342.852 143.47 301.726 136.66 284.992C128.715 265.464 106.981 232.663 106.981 232.663L85.7883 244.214C85.3043 244.482 84.8864 244.845 84.5628 245.279C84.2392 245.713 84.0173 246.207 83.9122 246.729C83.8071 247.252 83.8211 247.789 83.9534 248.306C84.0857 248.822 84.3331 249.306 84.679 249.724L112.282 283.18Z" fill="#21406D"/>
<path fill-rule="evenodd" clip-rule="evenodd" d="M144.464 257.134L156.924 353.871L172.841 348.273L151.442 254.7L144.464 257.134Z" fill="#233144"/>
<path fill-rule="evenodd" clip-rule="evenodd" d="M234.754 358.768V371.83C234.754 371.83 259.054 372.897 272.314 371.568C285.574 370.24 282.053 365.765 282.053 365.765L234.754 358.768Z" fill="#FEB18A"/>
<path fill-rule="evenodd" clip-rule="evenodd" d="M139.304 248.765V257.393C147.056 261.151 150.913 252.954 150.913 252.954L144.257 247.63C143.411 247.297 142.475 247.227 141.584 247.432C140.694 247.638 139.895 248.107 139.304 248.771" fill="#233144"/>
<path fill-rule="evenodd" clip-rule="evenodd" d="M148.514 228.989C149.959 236.257 145.754 247.219 145.754 247.219L155.815 255.924C157.324 244.978 151.7 234.658 151.7 234.658L148.514 228.989Z" fill="#FFFFFE"/>
<path fill-rule="evenodd" clip-rule="evenodd" d="M345.681 297.551C345.681 297.067 345.53 296.594 345.246 296.191C344.963 295.788 344.56 295.474 344.089 295.289C343.617 295.104 343.099 295.055 342.598 295.15C342.098 295.244 341.638 295.477 341.277 295.82C340.917 296.162 340.671 296.599 340.571 297.074C340.472 297.549 340.523 298.041 340.718 298.488C340.913 298.936 341.244 299.318 341.668 299.587C342.093 299.856 342.591 300 343.101 300C343.786 300 344.442 299.742 344.926 299.283C345.409 298.823 345.681 298.201 345.681 297.551Z" fill="#203253"/>
<path fill-rule="evenodd" clip-rule="evenodd" d="M105.252 237.559L143.548 243.84L147.856 241.105L162.122 256.144L188.319 377.794L135.925 395.498L95.4493 243.168L105.252 237.559Z" fill="#FFFFFE"/>
<path fill-rule="evenodd" clip-rule="evenodd" d="M171.241 371.011L148.333 387.486L235.36 446.444L335.672 593.84L358.58 579.967C358.58 579.967 301.323 439.508 295.145 424.985C288.966 410.462 273.836 404.826 273.836 404.826L171.241 371.011Z" fill="#102D76"/>
<path fill-rule="evenodd" clip-rule="evenodd" d="M172.789 165.852C172.789 165.852 173.847 192.888 166.301 202.141C163.283 205.834 157.44 206.322 151.493 205.579C148.694 214.472 145.289 227.648 148.191 231.78C151.21 236.065 137.021 255.925 137.021 255.925L108.348 236.55L114.23 207.778L109.702 179.876L128.766 177.06L125.245 159.201L172.789 165.852Z" fill="#FEB18A"/>
<path fill-rule="evenodd" clip-rule="evenodd" d="M330.68 282.022L336.652 306.856C336.652 306.856 275.526 323.638 270.947 324.795C266.368 325.952 259.39 329.962 241.319 320.719C231.903 315.905 216.915 309.056 204.713 303.598C203.335 302.979 201.821 302.681 200.297 302.73C198.773 302.778 197.283 303.172 195.952 303.877C194.62 304.583 193.486 305.58 192.643 306.786C191.8 307.992 191.273 309.372 191.105 310.811L184.423 370.397C184.423 370.397 204.868 389.675 211.072 394.439C211.072 394.439 199.824 404.405 194.536 405.271C189.247 406.136 178 377.547 178 377.547L167.436 284.186L161.232 272.274L166.056 243.681L196.664 261.206L259.39 297.324L330.68 282.019" fill="#102E75"/>
<path fill-rule="evenodd" clip-rule="evenodd" d="M124.742 241.232C129.438 238.677 132.962 234.551 134.622 229.661C135.844 226.526 136.591 223.244 136.841 219.91C132.326 217.303 128.302 212.819 126.857 205.167C123.697 188.26 125.051 191.466 123.697 186.802C123.026 184.537 121.582 183.337 120.176 183.337C118.68 183.337 117.209 184.684 116.745 187.53C115.842 193.07 115.532 199.628 120.073 201.669C124.613 203.71 123.388 209.539 123.388 209.539C122.817 212.461 121.855 215.302 120.524 217.993C120.163 218.595 119.789 219.217 119.402 219.777C124.781 229.276 128.07 236.006 123.904 240.574C124.174 240.794 124.458 241.013 124.742 241.232ZM114.797 220.478L114.81 220.422L114.797 220.478ZM139.407 199.614C142.181 196.342 145.083 193.201 143.999 189.068C142.232 182.388 144.038 176.517 151.687 176.517C153.485 176.548 155.271 176.798 157.001 177.262C160.423 178.148 163.953 178.606 167.501 178.623C170.133 178.646 172.757 178.339 175.304 177.71C175.369 176.02 175.407 174.475 175.42 173.15C172.855 173.875 170.19 174.23 167.513 174.204C161.114 174.024 154.806 172.71 148.914 170.332C143.483 168.308 139.446 166.547 136.531 166.547C135.495 166.508 134.477 166.816 133.655 167.417C130.791 169.605 130.185 174.56 131.694 180.827C133.203 187.094 139.395 191.321 139.098 196.568C139 197.593 139.105 198.626 139.407 199.614Z" fill="#BC8370"/>
<path fill-rule="evenodd" clip-rule="evenodd" d="M121.84 206.75C121.84 206.75 123.052 200.995 118.512 198.984C113.972 196.972 114.268 190.502 115.171 185.036C116.074 179.571 120.782 179.716 122.149 184.317C123.516 188.919 122.149 185.756 125.322 202.438C128.495 219.119 144.412 220.558 150.152 220.413C155.892 220.269 170.248 214.353 170.248 206.013C170.248 197.673 169.023 195.681 161.748 194.962C154.473 194.243 148.346 199.132 144.257 199.42C140.169 199.707 137.292 199.132 137.602 193.955C137.911 188.779 131.694 184.609 130.172 178.426C128.65 172.243 129.269 167.354 132.146 165.196C135.022 163.037 139.911 165.305 147.443 168.073C173.112 177.5 184.604 167.75 187.726 157.596C190.899 147.252 191.157 134.935 179.625 133.692C172.247 132.9 168.881 134.616 166.43 136.33C163.902 138.104 162.367 139.88 158.394 138.876C155.324 138.104 149.881 135.719 141.987 136.439C132.159 137.334 111.237 142.477 107.303 152.399C104.646 159.07 101.086 152.399 100.635 172.099C100.137 186.583 103.579 200.945 110.631 213.799C115.029 221.709 117.145 218.112 118.963 215.094C120.301 212.445 121.268 209.641 121.84 206.753" fill="#233144"/>
<path fill-rule="evenodd" clip-rule="evenodd" d="M343.101 600.904L360.772 588.147L366.37 589.146C379.359 590.033 394.644 583.376 406.962 577.385C419.28 571.395 421.783 575.833 421.783 575.833L352.221 617.103L343.101 600.904Z" fill="#ED003F"/>
<path fill-rule="evenodd" clip-rule="evenodd" d="M358.064 619.551L421.783 580.275V575.475L352.13 616.061L358.064 619.552" fill="#D9E2E9"/>
<path fill-rule="evenodd" clip-rule="evenodd" d="M361.159 586.57L356.735 579.148L337.942 590.259L343.605 598.738L361.159 586.57Z" fill="#FFFFFE"/>
<path fill-rule="evenodd" clip-rule="evenodd" d="M251.419 439.283C251.915 434.173 250.568 429.054 247.599 424.766C244.63 420.477 240.214 417.273 235.076 415.678L146.682 388.152L60.6232 448.463L79.7827 462.025L187.442 460.294L207.809 599.962H234.573C234.573 599.962 246.878 486.055 251.419 439.283Z" fill="#153B99"/>
<path fill-rule="evenodd" clip-rule="evenodd" d="M95.6944 238.783L130.869 279.203L135.86 298.847L159.942 409.227C159.942 409.227 122.523 435.386 105.252 444.295C87.981 453.205 67.373 457.806 59.7977 445.733C52.2224 433.659 48.318 405.452 47.072 384.505C44.5671 342.369 49.951 298.703 54.4951 280.163C59.0393 261.623 65.9219 255.538 74.6568 250.603C84.8854 244.824 95.6944 238.783 95.6944 238.783Z" fill="#153B99"/>
<path fill-rule="evenodd" clip-rule="evenodd" d="M206.287 591.392C206.287 591.392 228.988 591.537 232.471 596.997C235.953 602.456 262.731 608.797 274.687 610.715C286.644 612.634 284.98 615.878 284.98 615.878L202.507 613.666L206.287 591.392Z" fill="#ED003F"/>
<path fill-rule="evenodd" clip-rule="evenodd" d="M152.203 233.886L173.769 336.73L175.42 281.711C175.433 281.244 175.296 280.784 175.026 280.393C174.756 280.002 174.367 279.699 173.911 279.523L165.385 276.307L172.957 273.895C173.494 273.721 173.95 273.373 174.243 272.911C174.535 272.449 174.646 271.904 174.556 271.371L170.145 244.894L152.203 233.886Z" fill="#021D63"/>
<path fill-rule="evenodd" clip-rule="evenodd" d="M111.211 228.989L104.478 238.783C117.841 254.627 139.304 263.27 139.304 263.27V248.001C126.29 246.598 111.211 228.989 111.211 228.989Z" fill="#D9E2E9"/>
<path fill-rule="evenodd" clip-rule="evenodd" d="M112.282 283.18C112.755 283.722 113.382 284.125 114.087 284.341C114.793 284.558 115.549 284.58 116.268 284.404L129.166 281.247L123.916 289.132C123.472 289.798 123.259 290.579 123.305 291.367C123.351 292.154 123.655 292.908 124.174 293.523C134.016 305.15 144.464 342.852 144.464 342.852C144.464 342.852 143.47 301.726 136.66 284.992C128.715 265.464 106.981 232.663 106.981 232.663L85.7883 244.214C85.3043 244.482 84.8864 244.845 84.5628 245.279C84.2392 245.713 84.0173 246.207 83.9122 246.729C83.8071 247.252 83.8211 247.789 83.9534 248.306C84.0857 248.822 84.3331 249.306 84.679 249.724L112.282 283.18Z" fill="#0F3080"/>
<path fill-rule="evenodd" clip-rule="evenodd" d="M234.754 354.862L223.158 353.871L223.145 370.889L234.547 371.017L234.754 354.869" fill="#FFFFFE"/>
<path fill-rule="evenodd" clip-rule="evenodd" d="M144.464 257.134L151.532 254.7L171.551 348.842L157.079 353.871C157.079 353.871 149.817 328.249 150.616 304.285C151.416 280.321 144.464 257.136 144.464 257.136" fill="#ED003F"/>
<path fill-rule="evenodd" clip-rule="evenodd" d="M140.078 343.977C129.63 312.267 97.3582 272.548 89.8642 263.905C76.558 248.569 51.7077 277.195 63.8904 302.124C71.0968 316.874 98.8158 350.118 107.793 362.63C116.771 375.141 121.801 371.839 121.801 371.839L224.435 370.399V353.136L140.078 343.977Z" fill="#102E75"/>
<path fill-rule="evenodd" clip-rule="evenodd" d="M139.304 248.269V257.405C147.056 261.091 150.913 253.052 150.913 253.052L143.651 247.354C142.313 248.018 140.813 248.334 139.304 248.269Z" fill="#ED003F"/>
<path fill-rule="evenodd" clip-rule="evenodd" d="M148.914 228.989C149.455 236.108 145.754 247.101 145.754 247.101L155.815 255.924C157.324 244.831 151.7 234.376 151.7 234.376L148.914 228.989Z" fill="#FFFFFE"/>
<path fill-rule="evenodd" clip-rule="evenodd" d="M79.971 462.836L66.2986 452.862L79.971 462.836ZM64.0117 451.193L60.6232 448.719L64.0117 451.192V451.193ZM60.6232 448.719L61.4178 448.144L60.6232 448.719Z" fill="#B3C1CF"/>
<path fill-rule="evenodd" clip-rule="evenodd" d="M238.623 391.825L230.884 389.376L238.623 391.825Z" fill="#B3C1CF"/>
<path fill-rule="evenodd" clip-rule="evenodd" d="M252.812 396.722L237.333 391.825L252.812 396.722Z" fill="#8B1034"/>
<path fill-rule="evenodd" clip-rule="evenodd" d="M154.963 381.73L154.783 380.806H156.072L154.963 381.73Z" fill="#B3C1CF"/>
<path fill-rule="evenodd" clip-rule="evenodd" d="M229.182 412.639C231.398 408.073 234.891 404.17 239.279 401.356C243.668 398.541 248.785 396.922 254.076 396.673H254.101L239.088 391.804L230.252 388.938L205.177 380.806H197.103C202.443 385.625 208.002 390.543 210.762 392.632C210.762 392.632 202.12 400.182 196.432 402.629L229.182 412.639ZM190.486 400.809C186.745 396.263 182.282 386.653 179.741 380.806H156.356L154.783 381.919L156.679 390.477L190.486 400.809Z" fill="#0F3080"/>
<path fill-rule="evenodd" clip-rule="evenodd" d="M195.955 402.844C201.63 400.376 210.246 392.751 210.246 392.751C207.499 390.641 201.94 385.674 196.625 380.807H179.29C181.831 386.713 186.281 396.418 190.009 401.009L195.955 402.845" fill="#0F3080"/>
<path fill-rule="evenodd" clip-rule="evenodd" d="M107.058 232.662L110.36 227.622L112.217 217.97L110.36 227.623L107.058 232.662Z" fill="#B3C1CF"/>
<path fill-rule="evenodd" clip-rule="evenodd" d="M121.762 238.783C126.316 234.213 122.717 227.477 116.835 217.97C116.558 218.442 116.169 218.847 115.699 219.153C115.229 219.459 114.691 219.657 114.126 219.731C113.23 219.658 112.398 219.259 111.805 218.616L111.792 218.674L109.638 228.389L109.689 228.324C113.402 232.121 117.44 235.62 121.762 238.783Z" fill="#8C645F"/>
<path fill-rule="evenodd" clip-rule="evenodd" d="M107.058 153.08C111.005 143.187 132.017 138.057 141.884 137.163C132.004 137.88 111.005 143.186 107.058 153.08Z" fill="#B3C1CF"/>
<path fill-rule="evenodd" clip-rule="evenodd" d="M115.274 219.194C115.801 219.112 116.299 218.912 116.727 218.611C117.155 218.309 117.502 217.915 117.738 217.461C116.151 214.707 114.397 211.707 112.591 208.467C104.698 194.274 108.335 172.051 114.875 160.322C123.891 144.186 149.868 156.509 153.493 138.514C150.199 137.705 146.82 137.253 143.419 137.167C142.851 137.167 142.284 137.185 141.742 137.226C131.978 138.12 111.173 143.252 107.264 153.152C104.633 159.809 101.086 153.152 100.635 172.809C100.622 173.5 100.609 174.184 100.609 174.861C100.609 176.291 100.647 177.689 100.712 179.058C101.196 191.392 104.562 203.47 110.566 214.419C111.255 215.745 112.126 216.977 113.159 218.083V218.092C113.416 218.401 113.736 218.657 114.099 218.847C114.462 219.036 114.862 219.154 115.274 219.194Z" fill="#0F3080"/>
<path fill-rule="evenodd" clip-rule="evenodd" d="M79.7918 461.612L100.622 461.275C97.0401 458.586 93.7789 455.533 90.8961 452.171C86.4117 453.586 81.7299 454.357 77.0056 454.458C73.2461 454.581 69.5239 453.716 66.2483 451.961L79.7918 461.612ZM63.9781 450.348C62.9858 449.481 62.1219 448.49 61.41 447.403L60.6232 447.96L63.9768 450.348H63.9781ZM229.594 413.191L197.038 402.986L191.118 401.132L157.517 390.603L160.497 404.355C181.096 405.244 203.384 404.978 229.594 413.195" fill="#0F3080"/>
<path fill-rule="evenodd" clip-rule="evenodd" d="M75.5313 453.042C80.2337 452.941 84.8944 452.179 89.3612 450.78C75.6178 435.098 67.0866 412.295 66.1695 402.844C65.1648 392.511 66.2082 375.596 77.292 375.596C81.2428 375.596 86.4757 377.746 93.3377 383.109C115.072 400.093 135.826 402.493 158.656 403.472L153.806 381.238L153.561 380.115H104.882C103.366 380.117 101.865 379.834 100.464 379.285C99.0633 378.735 97.7904 377.928 96.7183 376.911C95.6461 375.894 94.7957 374.686 94.2156 373.357C93.6356 372.028 93.3372 370.603 93.3377 369.164H114.53L114.414 369.078C112.122 367.579 110.191 365.634 108.752 363.373C108.3 362.79 107.836 362.167 107.358 361.497C107.178 361.242 106.984 360.977 106.791 360.705C104.56 357.737 101.064 353.168 97.0654 347.947C91.0547 340.186 83.8703 330.976 77.5758 322.372C77.283 321.982 76.9902 321.581 76.6987 321.167C71.0078 313.339 66.1412 306.1 63.6801 301.039C56.2403 285.743 62.6883 269.054 71.8385 261.998C71.9159 261.91 71.9959 261.824 72.0758 261.736C76.0673 257.534 80.8392 254.065 86.1533 251.502L84.5797 249.626C84.0188 248.949 83.7236 248.108 83.7448 247.247C83.7659 246.386 84.1022 245.559 84.6958 244.907C81.5705 246.669 78.0813 248.633 74.6516 250.571C65.9206 255.508 59.0444 261.59 54.4964 280.136C50.7558 295.42 46.4374 327.776 46.4386 362.276C46.4386 369.633 46.636 377.09 47.0759 384.496C48.309 405.24 52.1463 433.102 59.572 445.368L59.7512 445.659C59.7667 445.685 59.7809 445.708 59.7977 445.734L60.0338 446.042L60.0079 446.059C60.718 447.136 61.5779 448.116 62.5644 448.973L62.8869 449.202C63.3032 449.533 63.739 449.842 64.1923 450.125L64.8204 450.57C68.0839 452.307 71.7867 453.162 75.5262 453.041" fill="#102E75"/>
<path fill-rule="evenodd" clip-rule="evenodd" d="M113.559 243.681C117.364 242.517 120.343 241.367 121.982 239.94C122.175 239.769 122.369 239.593 122.536 239.415C118.34 236.252 114.427 232.765 110.837 228.989L110.786 229.052L107.058 234.107C107.084 234.148 109.741 237.93 113.559 243.681Z" fill="#98ABC0"/>
<path fill-rule="evenodd" clip-rule="evenodd" d="M86.2656 252.251C95.8234 247.308 106.245 244.857 113.507 242.456C109.87 236.568 107.355 232.697 107.329 232.662L85.8141 244.609C85.8102 244.613 85.8059 244.617 85.8012 244.621C85.8012 244.621 85.7883 244.621 85.7883 244.627C85.4424 244.83 85.1332 245.085 84.8725 245.381C84.8499 245.392 84.8283 245.404 84.808 245.418C84.2059 246.098 83.8652 246.952 83.8418 247.84C83.8184 248.728 84.1136 249.598 84.6791 250.305L86.2656 252.248" fill="#252F59"/>
<path fill-rule="evenodd" clip-rule="evenodd" d="M114.797 369.787L114.642 369.701C114.688 369.727 114.731 369.755 114.771 369.787H114.797ZM108.98 363.965C108.981 363.961 108.98 363.956 108.977 363.953C108.975 363.949 108.971 363.946 108.967 363.945C108.528 363.325 107.858 362.42 107.019 361.284C107.213 361.557 107.406 361.823 107.587 362.079C108.064 362.752 108.528 363.379 108.98 363.965ZM97.2938 348.455C91.0638 340.284 83.6213 330.526 77.8079 322.779C77.8002 322.768 77.7911 322.754 77.7821 322.743C84.0856 331.394 91.2701 340.654 97.2938 348.454V348.455ZM76.9038 321.531C66.385 306.602 57.6359 278.16 72.0397 262.044C62.8817 269.138 56.4324 285.919 63.8749 301.294C66.3372 306.384 71.2077 313.66 76.9024 321.531" fill="#23314B"/>
<path fill-rule="evenodd" clip-rule="evenodd" d="M188.319 468.573C188.319 468.573 101.176 469.439 79.7298 468.573C73.6759 468.428 67.7736 466.745 62.6376 463.7C57.5015 460.654 53.3196 456.357 50.5275 451.257C50.5275 451.257 22.241 368.57 14.9404 340.43C9.16056 318.147 3.16918 309.17 0.923541 306.393C0.331358 305.673 0.00665796 304.787 0 303.874V298.776C21.9121 298.826 51.7541 416.557 55.9139 432.84C60.1317 449.369 68.3223 455.149 88.8581 455.149C103.846 455.149 150.01 451.22 173.808 449.104C175.648 448.94 177.503 449.142 179.255 449.698C181.008 450.254 182.619 451.151 183.985 452.332C185.351 453.513 186.442 454.952 187.188 456.556C187.934 458.16 188.32 459.895 188.319 461.649V468.573Z" fill="#D9E2E9"/>
<path fill-rule="evenodd" clip-rule="evenodd" d="M94.1594 371.011C94.1594 373.934 95.3825 376.737 97.5595 378.803C99.7366 380.869 102.689 382.03 105.768 382.03H700.404C703.481 382.027 706.43 380.865 708.605 378.799C710.779 376.733 712 373.932 712 371.011H94.1594Z" fill="#D8E2E9"/>
<path fill-rule="evenodd" clip-rule="evenodd" d="M123.826 618.327H128.986V380.806H123.826V618.327Z" fill="#D9E2E9"/>
<g clip-path="url(#clip1)">
<path fill-rule="evenodd" clip-rule="evenodd" d="M647.715 314.558L692.673 209.006H502.626C499.76 209.005 496.964 209.75 494.619 211.14C492.274 212.53 490.494 214.497 489.524 216.772L447.876 314.558H647.715Z" fill="#FFFFFE"/>
<path fill-rule="evenodd" clip-rule="evenodd" d="M638.085 334.576L646.302 315.468H446.754L441.815 326.959C441.449 327.823 441.336 328.749 441.485 329.657C441.634 330.566 442.041 331.431 442.67 332.179C443.3 332.927 444.135 333.535 445.103 333.952C446.071 334.37 447.144 334.584 448.232 334.576H638.085Z" fill="#D9E2E9"/>
<path fill-rule="evenodd" clip-rule="evenodd" d="M640.112 333.666C642.39 333.67 644.613 333.08 646.478 331.976C648.343 330.872 649.758 329.309 650.529 327.501L697.677 216.389C698.222 215.098 698.186 213.682 697.576 212.412C696.965 211.141 695.823 210.104 694.366 209.497L693.191 209.006L639.832 333.666H640.112Z" fill="#B3C1CF"/>
<path fill-rule="evenodd" clip-rule="evenodd" d="M548.167 333.666L561.281 366.424H608.558L595.132 333.666H548.167Z" fill="#D9E2E9"/>
<path fill-rule="evenodd" clip-rule="evenodd" d="M507.188 366.366V370.973H617.185L601.969 333.666H595.045L608.525 366.366H507.188Z" fill="#B3C1CF"/>
<path fill-rule="evenodd" clip-rule="evenodd" d="M654.681 214.466H519.05L521.455 209.006H657.086L654.681 214.466Z" fill="#B3C1CF"/>
<path fill-rule="evenodd" clip-rule="evenodd" d="M618.156 300.909H482.385L519.158 214.466H654.929L618.156 300.909Z" fill="#F4F6F8"/>
<path fill-rule="evenodd" clip-rule="evenodd" d="M581.317 298.179H519.05L532.272 266.332H594.539L581.317 298.179Z" fill="#FFFFFE"/>
<path fill-rule="evenodd" clip-rule="evenodd" d="M596.609 263.602H534.148L543.94 240.854H606.401L596.609 263.602Z" fill="#FFFFFE"/>
<path fill-rule="evenodd" clip-rule="evenodd" d="M633.124 238.124H544.932L553.796 217.195H641.988L633.124 238.124Z" fill="#FFFFFE"/>
<path fill-rule="evenodd" clip-rule="evenodd" d="M547.089 231.754L553.257 217.195H634.44C634.44 217.195 605.883 232.573 586.235 225.294C566.586 218.014 547.089 231.754 547.089 231.754Z" fill="#D9E2E9"/>
<path fill-rule="evenodd" clip-rule="evenodd" d="M546.485 225.385C548.394 220.861 545.622 217.195 540.306 217.195C534.989 217.195 529.112 220.862 527.203 225.385C525.294 229.908 528.066 233.574 533.382 233.574C538.699 233.574 544.576 229.908 546.485 225.385Z" fill="#B3C1CF"/>
<path fill-rule="evenodd" clip-rule="evenodd" d="M556.417 247.678C557.614 244.915 555.867 242.673 552.502 242.673C550.705 242.766 548.975 243.284 547.512 244.17C546.048 245.055 544.911 246.271 544.231 247.678C543.034 250.442 544.781 252.683 548.146 252.683C549.943 252.591 551.673 252.072 553.137 251.187C554.6 250.301 555.737 249.085 556.417 247.678Z" fill="#B3C1CF"/>
<path fill-rule="evenodd" clip-rule="evenodd" d="M543.476 274.066C544.673 271.301 542.926 269.061 539.572 269.061C537.773 269.152 536.041 269.67 534.575 270.555C533.11 271.441 531.971 272.658 531.29 274.066C530.093 276.829 531.84 279.071 535.194 279.071C536.993 278.98 538.726 278.462 540.191 277.577C541.656 276.691 542.795 275.474 543.476 274.066Z" fill="#B3C1CF"/>
<path fill-rule="evenodd" clip-rule="evenodd" d="M597.634 245.403H558.951L560.17 242.673H598.852L597.634 245.403Z" fill="#D9E2E9"/>
<path fill-rule="evenodd" clip-rule="evenodd" d="M536.186 243.583H522.286L523.483 240.854H537.383L536.186 243.583Z" fill="#D9E2E9"/>
<path fill-rule="evenodd" clip-rule="evenodd" d="M535.097 248.133H519.05L520.258 245.403H536.305L535.097 248.133Z" fill="#D9E2E9"/>
<path fill-rule="evenodd" clip-rule="evenodd" d="M528.616 251.773H517.972L519.191 249.043H529.834L528.616 251.773Z" fill="#D9E2E9"/>
<path fill-rule="evenodd" clip-rule="evenodd" d="M527.505 257.232H514.737L515.988 254.503H528.756L527.505 257.232Z" fill="#D9E2E9"/>
<path fill-rule="evenodd" clip-rule="evenodd" d="M585.782 271.791H547.089L548.297 269.061H586.99L585.782 271.791Z" fill="#D9E2E9"/>
<path fill-rule="evenodd" clip-rule="evenodd" d="M575.418 294.539H537.383L545.719 274.521H583.755L575.418 294.539Z" fill="#D9E2E9"/>
<path fill-rule="evenodd" clip-rule="evenodd" d="M594.398 250.863H555.716L556.924 248.133H595.617L594.398 250.863Z" fill="#D9E2E9"/>
<path fill-rule="evenodd" clip-rule="evenodd" d="M578.222 255.413H554.638L555.856 252.683H579.441L578.222 255.413Z" fill="#D9E2E9"/>
<path fill-rule="evenodd" clip-rule="evenodd" d="M470.641 259.962H470.522L486.256 222.753L470.641 259.962ZM489.718 215.017C490.916 213.199 492.666 211.684 494.789 210.628C496.913 209.571 499.331 209.011 501.796 209.006H501.699C499.247 209.011 496.842 209.572 494.734 210.629C492.627 211.686 490.895 213.201 489.718 215.016" fill="#D9E2E9"/>
<path fill-rule="evenodd" clip-rule="evenodd" d="M499.661 259.962L518.597 214.747L520.992 209.006H501.613C499.151 209.011 496.735 209.571 494.616 210.628C492.496 211.684 490.75 213.199 489.556 215.016C489.195 215.574 488.884 216.154 488.629 216.752L486.105 222.752L470.522 259.962H499.661Z" fill="#D9E2E9"/>
<path fill-rule="evenodd" clip-rule="evenodd" d="M579.215 214.466H519.05L521.466 209.006H581.598L579.215 214.466Z" fill="#98ABC0"/>
<path fill-rule="evenodd" clip-rule="evenodd" d="M536.79 259.052H501.796L520.992 214.466H581.598L580.681 216.63H555.047L546.01 237.615H571.763L570.846 239.778H545.083L536.79 259.052ZM518.403 254.064L517.196 256.885H529.619L530.827 254.064H518.403ZM520.452 249.302L519.245 252.123H529.888L531.096 249.302H520.452ZM522.501 244.541L521.293 247.361H537.372L538.591 244.541H522.501ZM524.55 239.778L523.342 242.599H537.372L538.591 239.778H524.55ZM541.503 216.63C546.862 216.63 549.655 220.253 547.725 224.728C545.795 229.203 539.896 232.826 534.525 232.826C529.155 232.826 526.373 229.203 528.292 224.728C530.212 220.253 536.132 216.63 541.503 216.63Z" fill="#CDD6E1"/>
<path fill-rule="evenodd" clip-rule="evenodd" d="M561.442 259.962H535.226L543.638 240.854H569.735L568.474 243.771H560.515L559.286 246.566H567.255L566.468 248.371H558.487L557.258 251.164H565.26L564.473 252.968H556.471L555.242 255.763H563.265L561.442 259.962ZM551.359 243.772C554.616 243.772 556.32 245.926 555.144 248.584C554.48 249.943 553.375 251.116 551.955 251.967C550.536 252.819 548.86 253.314 547.121 253.397C543.864 253.397 542.171 251.242 543.336 248.584C544.003 247.227 545.109 246.056 546.528 245.205C547.947 244.354 549.621 243.857 551.359 243.772Z" fill="#D9E2E9"/>
<path fill-rule="evenodd" clip-rule="evenodd" d="M570.566 238.124L576.907 223.165C576.227 223.128 575.548 223.111 574.879 223.111C559.976 223.111 547.725 231.62 547.725 231.62L553.926 217.195L544.932 238.124H570.566Z" fill="#D9E2E9"/>
<path fill-rule="evenodd" clip-rule="evenodd" d="M547.089 231.754C547.089 231.754 559.167 223.166 573.866 223.166C574.523 223.166 575.192 223.183 575.861 223.22L578.363 217.195H553.203L547.089 231.754Z" fill="#BAC5D6"/>
<path fill-rule="evenodd" clip-rule="evenodd" d="M533.382 233.574C538.71 233.574 544.576 229.908 546.485 225.385C548.394 220.862 545.622 217.195 540.306 217.195C534.989 217.195 529.112 220.862 527.203 225.385C525.294 229.908 528.066 233.574 533.382 233.574Z" fill="#98ABC0"/>
<path fill-rule="evenodd" clip-rule="evenodd" d="M548.146 252.683C549.943 252.591 551.673 252.072 553.137 251.187C554.6 250.301 555.737 249.085 556.417 247.678C557.614 244.915 555.867 242.673 552.502 242.673C550.705 242.766 548.975 243.284 547.512 244.17C546.048 245.055 544.911 246.271 544.231 247.678C543.034 250.442 544.781 252.683 548.146 252.683Z" fill="#98ABC0"/>
<path fill-rule="evenodd" clip-rule="evenodd" d="M566.435 245.403H558.951L560.105 242.673H567.579L566.435 245.403Z" fill="#BAC5D6"/>
<path fill-rule="evenodd" clip-rule="evenodd" d="M536.186 243.583H522.286L523.483 240.854H537.383L536.186 243.583Z" fill="#BAC5D6"/>
<path fill-rule="evenodd" clip-rule="evenodd" d="M535.097 248.133H519.05L520.258 245.403H536.305L535.097 248.133Z" fill="#BAC5D6"/>
<path fill-rule="evenodd" clip-rule="evenodd" d="M528.616 251.773H517.972L519.191 249.043H529.834L528.616 251.773Z" fill="#BAC5D6"/>
<path fill-rule="evenodd" clip-rule="evenodd" d="M527.505 257.232H514.737L515.988 254.503H528.756L527.505 257.232Z" fill="#BAC5D6"/>
<path fill-rule="evenodd" clip-rule="evenodd" d="M563.211 250.863H555.716L556.87 248.133H564.343L563.211 250.863Z" fill="#BAC5D6"/>
<path fill-rule="evenodd" clip-rule="evenodd" d="M562.133 255.413H554.638L555.781 252.683H563.265L562.133 255.413Z" fill="#BAC5D6"/>
<g filter="url(#filter0_d)">
<path fill-rule="evenodd" clip-rule="evenodd" d="M668.075 178.069H578.363L608.353 112.554H698.065L668.075 178.069Z" fill="white"/>
</g>
<path fill-rule="evenodd" clip-rule="evenodd" d="M635.529 135.757C633.027 141.457 625.672 146.096 619.126 146.096C612.58 146.096 609.291 141.455 611.782 135.757C614.273 130.059 621.639 125.418 628.185 125.418C634.731 125.418 638.02 130.055 635.529 135.757ZM618.274 148.041C626.06 148.041 634.795 142.53 637.761 135.757C640.727 128.983 636.812 123.473 629.037 123.473C621.261 123.473 612.516 128.983 609.55 135.757C606.584 142.53 610.499 148.041 618.274 148.041Z" fill="#FFFFFE"/>
<path fill-rule="evenodd" clip-rule="evenodd" d="M618.145 149.861C621.876 149.768 625.503 148.807 628.627 147.083C637.038 142.665 641.74 134.526 639.098 128.932L634.893 131.136C636.812 135.189 633.404 141.091 627.301 144.294C621.197 147.497 614.672 146.803 612.764 142.752L608.558 144.954C610.078 148.178 613.723 149.861 618.145 149.861Z" fill="#FFFFFE"/>
<path fill-rule="evenodd" clip-rule="evenodd" d="M618.263 148.951C626.869 148.951 636.532 143.237 639.81 136.212C643.088 129.187 638.764 123.473 630.158 123.473L628.53 126.977C634.763 126.977 637.901 131.119 635.518 136.211C633.135 141.303 626.136 145.446 619.903 145.446L618.263 148.951Z" fill="#B3C1CF"/>
<path fill-rule="evenodd" clip-rule="evenodd" d="M675.43 135.757C672.928 141.457 665.573 146.096 659.027 146.096C652.481 146.096 649.192 141.455 651.683 135.757C654.174 130.059 661.54 125.418 668.086 125.418C674.632 125.418 677.921 130.055 675.43 135.757ZM658.175 148.041C665.961 148.041 674.696 142.53 677.662 135.757C680.628 128.983 676.713 123.473 668.938 123.473C661.162 123.473 652.417 128.983 649.451 135.757C646.485 142.53 650.4 148.041 658.175 148.041Z" fill="#FFFFFE"/>
<path fill-rule="evenodd" clip-rule="evenodd" d="M658.164 148.951C666.77 148.951 676.433 143.237 679.711 136.212C682.989 129.187 678.665 123.473 670.059 123.473L668.42 126.977C674.664 126.977 677.802 131.119 675.419 136.211C673.036 141.303 666.037 145.446 659.804 145.446L658.164 148.951Z" fill="#FFFFFE"/>
<path fill-rule="evenodd" clip-rule="evenodd" d="M668.269 146.221C672.887 143.935 676.518 140.463 678.632 136.312C681.932 129.233 677.565 123.473 668.894 123.473L667.245 127.004C673.532 127.004 676.691 131.179 674.297 136.312C672.768 139.321 670.138 141.838 666.792 143.496L668.269 146.226" fill="#B3C1CF"/>
<path fill-rule="evenodd" clip-rule="evenodd" d="M624.464 160.78H594.539L595.887 158.05H625.812L624.464 160.78Z" fill="#B3C1CF"/>
<path fill-rule="evenodd" clip-rule="evenodd" d="M623.386 166.24H593.46L594.808 163.51H624.734L623.386 166.24Z" fill="#FFFFFE"/>
<path fill-rule="evenodd" clip-rule="evenodd" d="M611.502 170.789H591.303L592.662 168.059H612.871L611.502 170.789Z" fill="#FFFFFE"/>
<path fill-rule="evenodd" clip-rule="evenodd" d="M665.444 160.78H635.518L636.866 158.05H666.792L665.444 160.78Z" fill="#FFFFFE"/>
<path fill-rule="evenodd" clip-rule="evenodd" d="M652.492 166.24H633.361L634.72 163.51H653.851L652.492 166.24Z" fill="#FFFFFE"/>
<g filter="url(#filter1_d)">
<path fill-rule="evenodd" clip-rule="evenodd" d="M432.778 225.385L457.7 166.24H563.265L538.343 225.385H432.778Z" fill="white"/>
</g>
<path fill-rule="evenodd" clip-rule="evenodd" d="M498.367 194.902C502.443 185.103 496.415 177.159 484.908 177.159C473.401 177.159 460.773 185.103 456.697 194.902C452.621 204.701 458.638 212.646 470.145 212.646C481.651 212.646 494.29 204.701 498.367 194.902Z" fill="#F2F9FF"/>
<path fill-rule="evenodd" clip-rule="evenodd" d="M543.584 179.888H513.658L515.006 177.159H544.932L543.584 179.888Z" fill="#B3C1CF"/>
<path fill-rule="evenodd" clip-rule="evenodd" d="M541.427 184.438H511.502L512.85 181.708H542.775L541.427 184.438Z" fill="#EEF2F5"/>
<path fill-rule="evenodd" clip-rule="evenodd" d="M530.622 189.898H510.423L511.782 187.168H531.991L530.622 189.898Z" fill="#EEF2F5"/>
<path fill-rule="evenodd" clip-rule="evenodd" d="M532.8 205.366H502.874L504.222 202.637H534.148L532.8 205.366Z" fill="#EEF2F5"/>
<path fill-rule="evenodd" clip-rule="evenodd" d="M519.838 209.916H499.639L500.998 207.186H521.207L519.838 209.916Z" fill="#EEF2F5"/>
<path fill-rule="evenodd" clip-rule="evenodd" d="M486.256 190.369C487.68 187.093 485.577 184.438 481.565 184.438C479.426 184.54 477.364 185.151 475.62 186.2C473.875 187.25 472.519 188.695 471.708 190.369C469.217 196.107 470.824 199.907 474.836 199.907C478.847 199.907 483.743 196.158 486.256 190.369Z" fill="#B3C1CF"/>
<path fill-rule="evenodd" clip-rule="evenodd" d="M457.581 207.388C462.693 201.052 486.644 201.052 486.698 207.388C481.641 210.636 475.709 212.646 470.048 212.646C464.386 212.646 460.051 210.636 457.581 207.388Z" fill="#B3C1CF"/>
</g>
<g clip-path="url(#clip2)">
<path fill-rule="evenodd" clip-rule="evenodd" d="M580.435 528.913H592.147C592.192 521.228 592.956 513.563 594.43 506.007C596.713 495.967 600.621 484.519 604.052 479.934C607.483 475.349 625.786 482.188 632.055 490.196C640.49 500.949 649.752 505.337 656.291 508.818C656.63 508.996 657.012 509.088 657.4 509.082C657.787 509.077 658.167 508.975 658.5 508.787C658.833 508.598 659.108 508.33 659.298 508.009C659.487 507.688 659.585 507.326 659.58 506.958V492.254C659.58 488.661 662.444 488.661 662.444 492.234C662.444 497.71 664.069 509.539 664.069 509.539C664.07 510.078 664.287 510.597 664.674 510.991C665.062 511.385 665.592 511.626 666.159 511.664C682.153 512.881 687.364 502.383 691.44 494.564C695.696 486.412 699.656 465.834 683.843 469.328C668.029 472.822 656.472 467.002 634.57 463.515C612.668 460.028 604.155 469.945 599.447 479.934C594.739 489.924 580.435 528.913 580.435 528.913Z" fill="#006044"/>
<path fill-rule="evenodd" clip-rule="evenodd" d="M597.203 527.039H600.866C600.866 527.039 605.548 513.757 608.631 514.299C611.714 514.841 614.577 522.345 613.12 527.039C611.662 531.733 607.264 554.964 613.12 575.189C618.976 595.414 640.864 598.696 640.864 598.696C640.864 598.696 636.543 592.429 634.944 580.685C633.345 568.941 642.464 557.509 640.864 549.028C639.265 540.547 622.123 529.155 618.924 522.776C615.725 516.397 617.789 513.426 616.641 510.818C615.493 508.21 607.264 503.422 603.833 510.818C600.402 518.214 597.203 527.039 597.203 527.039Z" fill="#006044"/>
<path fill-rule="evenodd" clip-rule="evenodd" d="M573.766 528.913H570.206C567.265 518.873 564.776 458.295 567.265 441.862C569.755 425.429 579.261 390.618 599.538 379.911C619.814 369.204 657.607 324.449 657.607 324.449C660.38 335.753 658.626 363.357 657.891 373.091C657.869 373.377 657.759 373.649 657.575 373.875C657.391 374.101 657.141 374.271 656.856 374.362C656.57 374.454 656.263 374.463 655.972 374.39C655.681 374.316 655.42 374.163 655.221 373.949C651.867 370.355 645.869 364.14 642.89 362.502C638.633 360.156 636.298 363.856 640.658 366.501C647.288 370.533 652.976 378.679 656.24 383.261C656.697 383.909 657.014 384.637 657.174 385.402C657.333 386.168 657.331 386.955 657.168 387.72C654.305 401.585 644.102 415.07 640.348 419.662C640.196 419.849 639.998 419.998 639.77 420.095C639.543 420.192 639.294 420.234 639.046 420.218C638.797 420.202 638.556 420.128 638.345 420.003C638.133 419.878 637.958 419.705 637.833 419.5L623.645 396.666C620.085 390.945 616.654 397.1 620.472 403.369C623.464 408.29 630.739 419.261 633.731 423.759C634.14 424.371 634.33 425.092 634.272 425.815C634.214 426.538 633.911 427.223 633.409 427.769C631.59 429.716 627.772 433.426 619.801 440.345C605.084 453.102 585.568 457.301 578.668 458.955C570.787 460.848 571.251 469.387 571.045 490.075C571.136 503.061 572.045 516.03 573.766 528.913Z" fill="#00835E"/>
<path fill-rule="evenodd" clip-rule="evenodd" d="M567.536 528.913H563.886C563.886 528.913 560.236 516.198 556.817 504.262C553.399 492.326 545.879 474.962 531.51 474.094C527.046 473.713 522.551 473.808 518.109 474.378C512.677 474.929 507.207 475.051 501.754 474.746C486.649 474.235 469.804 467.591 463.213 464.742C462.901 464.605 462.628 464.401 462.413 464.147C462.199 463.892 462.05 463.594 461.977 463.276C461.905 462.958 461.911 462.627 461.995 462.312C462.08 461.996 462.241 461.703 462.465 461.457C466.799 456.745 466.992 452.217 467.895 448.266C468.914 443.76 464.761 444.776 463.935 448.339C462.49 454.558 455.435 458.888 452.52 460.44C452.153 460.641 451.733 460.737 451.31 460.719C450.888 460.7 450.479 460.566 450.134 460.334C435.971 450.389 435.971 428.517 435.971 428.517C449.656 434.81 470.862 434.377 494.35 432.206C517.838 430.035 551.349 445.881 553.167 463.242C554.986 480.603 567.536 528.913 567.536 528.913Z" fill="#00835E"/>
<path fill-rule="evenodd" clip-rule="evenodd" d="M569.265 504.556L569.948 522.457C569.948 522.457 571.522 509.612 564.892 504.017C558.262 498.422 553.464 507.029 542.707 516.066C531.949 525.103 538.295 527.468 523.333 546.828C508.371 566.189 479.826 561.459 479.826 561.459C484.379 556.829 488.44 551.785 491.951 546.4C498.8 536.289 502.012 520.585 510.009 506.999C518.006 493.414 535.638 488.787 543.403 487.454C555.902 485.303 569.265 504.557 569.265 504.557" fill="#00835E"/>
<path fill-rule="evenodd" clip-rule="evenodd" d="M564.299 528.913H535.29L556.753 621.962H611.108L626.87 528.913H564.299Z" fill="#FFFFFE"/>
<path fill-rule="evenodd" clip-rule="evenodd" d="M554.638 475.042C553.786 470.459 553.128 466.397 552.806 463.31C553.128 466.399 553.786 470.452 554.638 475.037V475.042ZM467.508 433.346C475.634 433.346 484.418 432.772 493.55 431.925C484.444 432.768 475.686 433.339 467.598 433.339C456.983 433.339 447.502 432.359 439.841 429.737L439.879 429.776C447.515 432.376 456.944 433.346 467.508 433.346ZM493.782 431.904L494.079 431.875L493.782 431.904Z" fill="#B3C1CF"/>
<path fill-rule="evenodd" clip-rule="evenodd" d="M554.638 475.042C553.786 470.452 553.128 466.394 552.819 463.303C551.103 446.795 521.54 431.64 498.516 431.64C496.994 431.64 495.511 431.707 494.053 431.844L493.757 431.871C493.679 431.879 493.602 431.884 493.524 431.891C484.392 432.74 475.595 433.314 467.482 433.314C456.918 433.314 447.477 432.344 439.841 429.741C447.012 436.511 460.452 441.749 487.372 442.842C522.83 444.283 545.041 461.207 554.638 475.042Z" fill="#006754"/>
<path fill-rule="evenodd" clip-rule="evenodd" d="M566.246 460.35C566.197 454.157 566.533 447.966 567.253 441.811C566.533 447.966 566.197 454.157 566.246 460.35Z" fill="#B3C1CF"/>
<path fill-rule="evenodd" clip-rule="evenodd" d="M566.246 465.247C572.128 447.444 596.739 440.312 598.39 415.571C600.286 387.231 628.392 392.028 632.48 364.996C634.609 350.916 647.365 342.576 659.116 337.816C659.07 333.344 658.604 328.885 657.723 324.492H657.71V324.449C657.71 324.449 619.853 369.575 599.563 380.365C579.274 391.155 569.755 426.253 567.265 442.82C566.558 449.027 566.226 455.267 566.272 461.511C566.259 462.728 566.246 463.975 566.246 465.247Z" fill="#006754"/>
<path fill-rule="evenodd" clip-rule="evenodd" d="M560.055 528.913C580.628 555.761 527.344 618.714 611.391 621.962H556.83L535.29 528.913H560.055Z" fill="#B3C1CF"/>
</g>
</g>
<defs>
<filter id="filter0_d" x="564.221" y="100.412" width="147.987" height="93.7989" filterUnits="userSpaceOnUse" color-interpolation-filters="sRGB">
<feFlood flood-opacity="0" result="BackgroundImageFix"/>
<feColorMatrix in="SourceAlpha" type="matrix" values="0 0 0 0 0 0 0 0 0 0 0 0 0 0 0 0 0 0 127 0"/>
<feOffset dy="2"/>
<feGaussianBlur stdDeviation="7.071"/>
<feColorMatrix type="matrix" values="0 0 0 0 0.752941 0 0 0 0 0.796078 0 0 0 0 0.835294 0 0 0 0.09 0"/>
<feBlend mode="normal" in2="BackgroundImageFix" result="effect1_dropShadow"/>
<feBlend mode="normal" in="SourceGraphic" in2="effect1_dropShadow" result="shape"/>
</filter>
<filter id="filter1_d" x="426.454" y="159.916" width="143.135" height="71.7934" filterUnits="userSpaceOnUse" color-interpolation-filters="sRGB">
<feFlood flood-opacity="0" result="BackgroundImageFix"/>
<feColorMatrix in="SourceAlpha" type="matrix" values="0 0 0 0 0 0 0 0 0 0 0 0 0 0 0 0 0 0 127 0"/>
<feOffset/>
<feGaussianBlur stdDeviation="3.162"/>
<feColorMatrix type="matrix" values="0 0 0 0 0.321569 0 0 0 0 0.494118 0 0 0 0 0.556863 0 0 0 0.1 0"/>
<feBlend mode="normal" in2="BackgroundImageFix" result="effect1_dropShadow"/>
<feBlend mode="normal" in="SourceGraphic" in2="effect1_dropShadow" result="shape"/>
</filter>
<clipPath id="clip0">
<rect width="712" height="622" fill="white"/>
</clipPath>
<clipPath id="clip1">
<rect x="423.072" y="69.7871" width="328.913" height="301.186" fill="white"/>
</clipPath>
<clipPath id="clip2">
<rect x="435.971" y="324.449" width="259.261" height="297.513" fill="white"/>
</clipPath>
</defs>
</svg>
